<?xml version="1.0" encoding="UTF-8" standalone="no"?>
<!DOCTYPE svg PUBLIC "-//W3C//DTD SVG 1.1//EN"
 "http://www.w3.org/Graphics/SVG/1.1/DTD/svg11.dtd">
<!-- Generated by graphviz version 2.38.0 (20140413.2041)
 -->
<!-- Title: controllers_diagram Pages: 1 -->
<svg width="719pt" height="774pt"
 viewBox="0.00 0.00 719.00 774.00" xmlns="http://www.w3.org/2000/svg" xmlns:xlink="http://www.w3.org/1999/xlink">
<g id="graph0" class="graph" transform="scale(1 1) rotate(0) translate(259 430)">
<title>controllers_diagram</title>
<polygon fill="none" stroke="none" points="-259,344 -259,-430 460,-430 460,344 -259,344"/>
<!-- _diagram_info -->
<g id="node1" class="node"><title>_diagram_info</title>
<text text-anchor="start" x="-246.5" y="191.4" font-family="Times New Roman,serif" font-size="13.00">Controllers diagram</text>
<text text-anchor="start" x="-246.5" y="205.4" font-family="Times New Roman,serif" font-size="13.00">Date: Dec 17 2018 &#45; 14:30</text>
<text text-anchor="start" x="-246.5" y="219.4" font-family="Times New Roman,serif" font-size="13.00">Migration version: 20181217023714</text>
<text text-anchor="start" x="-246.5" y="233.4" font-family="Times New Roman,serif" font-size="13.00">Generated by RailRoady 1.5.3</text>
<text text-anchor="start" x="-246.5" y="247.4" font-family="Times New Roman,serif" font-size="13.00">http://railroady.prestonlee.com</text>
</g>
<!-- Accounts::RegistrationsController -->
<g id="node2" class="node"><title>Accounts::RegistrationsController</title>
<path fill="none" stroke="black" d="M-90,-154C-90,-154 92,-154 92,-154 98,-154 104,-160 104,-166 104,-166 104,-234 104,-234 104,-240 98,-246 92,-246 92,-246 -90,-246 -90,-246 -96,-246 -102,-240 -102,-234 -102,-234 -102,-166 -102,-166 -102,-160 -96,-154 -90,-154"/>
<text text-anchor="middle" x="1" y="-230.8" font-family="Times New Roman,serif" font-size="14.00">Accounts::RegistrationsController</text>
<polyline fill="none" stroke="black" points="-102,-223 104,-223 "/>
<text text-anchor="start" x="-94" y="-207.8" font-family="Times New Roman,serif" font-size="14.00">confirm</text>
<polyline fill="none" stroke="black" points="-102,-200 104,-200 "/>
<text text-anchor="start" x="-94" y="-184.8" font-family="Times New Roman,serif" font-size="14.00">after_update_path_for</text>
<polyline fill="none" stroke="black" points="-102,-177 104,-177 "/>
<text text-anchor="start" x="-94" y="-161.8" font-family="Times New Roman,serif" font-size="14.00">_layout</text>
</g>
<!-- ApplicationController -->
<g id="node3" class="node"><title>ApplicationController</title>
<path fill="none" stroke="black" d="M114.5,237.5C114.5,237.5 287.5,237.5 287.5,237.5 293.5,237.5 299.5,231.5 299.5,225.5 299.5,225.5 299.5,156.5 299.5,156.5 299.5,150.5 293.5,144.5 287.5,144.5 287.5,144.5 114.5,144.5 114.5,144.5 108.5,144.5 102.5,150.5 102.5,156.5 102.5,156.5 102.5,225.5 102.5,225.5 102.5,231.5 108.5,237.5 114.5,237.5"/>
<text text-anchor="middle" x="201" y="159.7" font-family="Times New Roman,serif" font-size="14.00">ApplicationController</text>
<polyline fill="none" stroke="black" points="102.5,167.5 299.5,167.5 "/>
<polyline fill="none" stroke="black" points="102.5,191.5 299.5,191.5 "/>
<text text-anchor="start" x="110.5" y="206.7" font-family="Times New Roman,serif" font-size="14.00">configure_permitted_parameters</text>
<polyline fill="none" stroke="black" points="102.5,214.5 299.5,214.5 "/>
<text text-anchor="start" x="110.5" y="229.7" font-family="Times New Roman,serif" font-size="14.00">_layout</text>
</g>
<!-- BookmarksController -->
<g id="node4" class="node"><title>BookmarksController</title>
<path fill="none" stroke="black" d="M-21.5,-272.5C-21.5,-272.5 91.5,-272.5 91.5,-272.5 97.5,-272.5 103.5,-278.5 103.5,-284.5 103.5,-284.5 103.5,-413.5 103.5,-413.5 103.5,-419.5 97.5,-425.5 91.5,-425.5 91.5,-425.5 -21.5,-425.5 -21.5,-425.5 -27.5,-425.5 -33.5,-419.5 -33.5,-413.5 -33.5,-413.5 -33.5,-284.5 -33.5,-284.5 -33.5,-278.5 -27.5,-272.5 -21.5,-272.5"/>
<text text-anchor="middle" x="35" y="-410.3" font-family="Times New Roman,serif" font-size="14.00">BookmarksController</text>
<polyline fill="none" stroke="black" points="-33.5,-402.5 103.5,-402.5 "/>
<text text-anchor="start" x="-25.5" y="-387.3" font-family="Times New Roman,serif" font-size="14.00">destroy</text>
<text text-anchor="start" x="-25.5" y="-372.3" font-family="Times New Roman,serif" font-size="14.00">index</text>
<text text-anchor="start" x="-25.5" y="-357.3" font-family="Times New Roman,serif" font-size="14.00">create</text>
<polyline fill="none" stroke="black" points="-33.5,-349.5 103.5,-349.5 "/>
<polyline fill="none" stroke="black" points="-33.5,-325.5 103.5,-325.5 "/>
<text text-anchor="start" x="-25.5" y="-310.3" font-family="Times New Roman,serif" font-size="14.00">bookmark_params</text>
<text text-anchor="start" x="-25.5" y="-295.3" font-family="Times New Roman,serif" font-size="14.00">set_bookmark</text>
<text text-anchor="start" x="-25.5" y="-280.3" font-family="Times New Roman,serif" font-size="14.00">_layout</text>
</g>
<!-- ChatCommentsController -->
<g id="node5" class="node"><title>ChatCommentsController</title>
<path fill="none" stroke="black" d="M114,101C114,101 250,101 250,101 256,101 262,95 262,89 262,89 262,-85 262,-85 262,-91 256,-97 250,-97 250,-97 114,-97 114,-97 108,-97 102,-91 102,-85 102,-85 102,89 102,89 102,95 108,101 114,101"/>
<text text-anchor="middle" x="182" y="-81.8" font-family="Times New Roman,serif" font-size="14.00">ChatCommentsController</text>
<polyline fill="none" stroke="black" points="102,-74 262,-74 "/>
<text text-anchor="start" x="110" y="-58.8" font-family="Times New Roman,serif" font-size="14.00">destroy</text>
<text text-anchor="start" x="110" y="-43.8" font-family="Times New Roman,serif" font-size="14.00">index</text>
<text text-anchor="start" x="110" y="-28.8" font-family="Times New Roman,serif" font-size="14.00">new</text>
<text text-anchor="start" x="110" y="-13.8" font-family="Times New Roman,serif" font-size="14.00">show</text>
<text text-anchor="start" x="110" y="1.2" font-family="Times New Roman,serif" font-size="14.00">update</text>
<text text-anchor="start" x="110" y="16.2" font-family="Times New Roman,serif" font-size="14.00">create</text>
<polyline fill="none" stroke="black" points="102,24 262,24 "/>
<polyline fill="none" stroke="black" points="102,48 262,48 "/>
<text text-anchor="start" x="110" y="63.2" font-family="Times New Roman,serif" font-size="14.00">chat_comment_params</text>
<text text-anchor="start" x="110" y="78.2" font-family="Times New Roman,serif" font-size="14.00">set_chat_comment</text>
<text text-anchor="start" x="110" y="93.2" font-family="Times New Roman,serif" font-size="14.00">_layout</text>
</g>
<!-- CommentsController -->
<g id="node6" class="node"><title>CommentsController</title>
<path fill="none" stroke="black" d="M-243,50C-243,50 -133,50 -133,50 -127,50 -121,44 -121,38 -121,38 -121,-106 -121,-106 -121,-112 -127,-118 -133,-118 -133,-118 -243,-118 -243,-118 -249,-118 -255,-112 -255,-106 -255,-106 -255,38 -255,38 -255,44 -249,50 -243,50"/>
<text text-anchor="middle" x="-188" y="-102.8" font-family="Times New Roman,serif" font-size="14.00">CommentsController</text>
<polyline fill="none" stroke="black" points="-255,-95 -121,-95 "/>
<text text-anchor="start" x="-247" y="-79.8" font-family="Times New Roman,serif" font-size="14.00">create</text>
<text text-anchor="start" x="-247" y="-64.8" font-family="Times New Roman,serif" font-size="14.00">destroy</text>
<text text-anchor="start" x="-247" y="-49.8" font-family="Times New Roman,serif" font-size="14.00">index</text>
<text text-anchor="start" x="-247" y="-34.8" font-family="Times New Roman,serif" font-size="14.00">add_index</text>
<polyline fill="none" stroke="black" points="-255,-27 -121,-27 "/>
<polyline fill="none" stroke="black" points="-255,-3 -121,-3 "/>
<text text-anchor="start" x="-247" y="12.2" font-family="Times New Roman,serif" font-size="14.00">comment_params</text>
<text text-anchor="start" x="-247" y="27.2" font-family="Times New Roman,serif" font-size="14.00">set_comment</text>
<text text-anchor="start" x="-247" y="42.2" font-family="Times New Roman,serif" font-size="14.00">_layout</text>
</g>
<!-- EntryChatsController -->
<g id="node7" class="node"><title>EntryChatsController</title>
<path fill="none" stroke="black" d="M148.5,-137C148.5,-137 259.5,-137 259.5,-137 265.5,-137 271.5,-143 271.5,-149 271.5,-149 271.5,-353 271.5,-353 271.5,-359 265.5,-365 259.5,-365 259.5,-365 148.5,-365 148.5,-365 142.5,-365 136.5,-359 136.5,-353 136.5,-353 136.5,-149 136.5,-149 136.5,-143 142.5,-137 148.5,-137"/>
<text text-anchor="middle" x="204" y="-349.8" font-family="Times New Roman,serif" font-size="14.00">EntryChatsController</text>
<polyline fill="none" stroke="black" points="136.5,-342 271.5,-342 "/>
<text text-anchor="start" x="144.5" y="-326.8" font-family="Times New Roman,serif" font-size="14.00">create</text>
<text text-anchor="start" x="144.5" y="-311.8" font-family="Times New Roman,serif" font-size="14.00">destroy</text>
<text text-anchor="start" x="144.5" y="-296.8" font-family="Times New Roman,serif" font-size="14.00">edit</text>
<text text-anchor="start" x="144.5" y="-281.8" font-family="Times New Roman,serif" font-size="14.00">index</text>
<text text-anchor="start" x="144.5" y="-266.8" font-family="Times New Roman,serif" font-size="14.00">new</text>
<text text-anchor="start" x="144.5" y="-251.8" font-family="Times New Roman,serif" font-size="14.00">show</text>
<text text-anchor="start" x="144.5" y="-236.8" font-family="Times New Roman,serif" font-size="14.00">update</text>
<text text-anchor="start" x="144.5" y="-221.8" font-family="Times New Roman,serif" font-size="14.00">add_result</text>
<polyline fill="none" stroke="black" points="136.5,-214 271.5,-214 "/>
<polyline fill="none" stroke="black" points="136.5,-190 271.5,-190 "/>
<text text-anchor="start" x="144.5" y="-174.8" font-family="Times New Roman,serif" font-size="14.00">entry_chat_params</text>
<text text-anchor="start" x="144.5" y="-159.8" font-family="Times New Roman,serif" font-size="14.00">set_entry_chat</text>
<text text-anchor="start" x="144.5" y="-144.8" font-family="Times New Roman,serif" font-size="14.00">_layout</text>
</g>
<!-- HomeController -->
<g id="node8" class="node"><title>HomeController</title>
<path fill="none" stroke="black" d="M318.5,-68.5C318.5,-68.5 401.5,-68.5 401.5,-68.5 407.5,-68.5 413.5,-74.5 413.5,-80.5 413.5,-80.5 413.5,-179.5 413.5,-179.5 413.5,-185.5 407.5,-191.5 401.5,-191.5 401.5,-191.5 318.5,-191.5 318.5,-191.5 312.5,-191.5 306.5,-185.5 306.5,-179.5 306.5,-179.5 306.5,-80.5 306.5,-80.5 306.5,-74.5 312.5,-68.5 318.5,-68.5"/>
<text text-anchor="middle" x="360" y="-176.3" font-family="Times New Roman,serif" font-size="14.00">HomeController</text>
<polyline fill="none" stroke="black" points="306.5,-168.5 413.5,-168.5 "/>
<text text-anchor="start" x="314.5" y="-153.3" font-family="Times New Roman,serif" font-size="14.00">index</text>
<text text-anchor="start" x="314.5" y="-138.3" font-family="Times New Roman,serif" font-size="14.00">show</text>
<text text-anchor="start" x="314.5" y="-123.3" font-family="Times New Roman,serif" font-size="14.00">button</text>
<polyline fill="none" stroke="black" points="306.5,-115.5 413.5,-115.5 "/>
<polyline fill="none" stroke="black" points="306.5,-91.5 413.5,-91.5 "/>
<text text-anchor="start" x="314.5" y="-76.3" font-family="Times New Roman,serif" font-size="14.00">_layout</text>
</g>
<!-- MainsController -->
<g id="node9" class="node"><title>MainsController</title>
<path fill="none" stroke="black" d="M301.5,101C301.5,101 386.5,101 386.5,101 392.5,101 398.5,95 398.5,89 398.5,89 398.5,-25 398.5,-25 398.5,-31 392.5,-37 386.5,-37 386.5,-37 301.5,-37 301.5,-37 295.5,-37 289.5,-31 289.5,-25 289.5,-25 289.5,89 289.5,89 289.5,95 295.5,101 301.5,101"/>
<text text-anchor="middle" x="344" y="-21.8" font-family="Times New Roman,serif" font-size="14.00">MainsController</text>
<polyline fill="none" stroke="black" points="289.5,-14 398.5,-14 "/>
<text text-anchor="start" x="297.5" y="1.2" font-family="Times New Roman,serif" font-size="14.00">button</text>
<text text-anchor="start" x="297.5" y="16.2" font-family="Times New Roman,serif" font-size="14.00">index</text>
<text text-anchor="start" x="297.5" y="31.2" font-family="Times New Roman,serif" font-size="14.00">inputtag_params</text>
<text text-anchor="start" x="297.5" y="46.2" font-family="Times New Roman,serif" font-size="14.00">add_index</text>
<polyline fill="none" stroke="black" points="289.5,54 398.5,54 "/>
<polyline fill="none" stroke="black" points="289.5,78 398.5,78 "/>
<text text-anchor="start" x="297.5" y="93.2" font-family="Times New Roman,serif" font-size="14.00">_layout</text>
</g>
<!-- MembersController -->
<g id="node10" class="node"><title>MembersController</title>
<path fill="none" stroke="black" d="M318.5,-221.5C318.5,-221.5 419.5,-221.5 419.5,-221.5 425.5,-221.5 431.5,-227.5 431.5,-233.5 431.5,-233.5 431.5,-302.5 431.5,-302.5 431.5,-308.5 425.5,-314.5 419.5,-314.5 419.5,-314.5 318.5,-314.5 318.5,-314.5 312.5,-314.5 306.5,-308.5 306.5,-302.5 306.5,-302.5 306.5,-233.5 306.5,-233.5 306.5,-227.5 312.5,-221.5 318.5,-221.5"/>
<text text-anchor="middle" x="369" y="-299.3" font-family="Times New Roman,serif" font-size="14.00">MembersController</text>
<polyline fill="none" stroke="black" points="306.5,-291.5 431.5,-291.5 "/>
<text text-anchor="start" x="314.5" y="-276.3" font-family="Times New Roman,serif" font-size="14.00">index</text>
<polyline fill="none" stroke="black" points="306.5,-268.5 431.5,-268.5 "/>
<polyline fill="none" stroke="black" points="306.5,-244.5 431.5,-244.5 "/>
<text text-anchor="start" x="314.5" y="-229.3" font-family="Times New Roman,serif" font-size="14.00">_layout</text>
</g>
<!-- RecruitmentsController -->
<g id="node11" class="node"><title>RecruitmentsController</title>
<path fill="none" stroke="black" d="M-73,135C-73,135 49,135 49,135 55,135 61,129 61,123 61,123 61,-111 61,-111 61,-117 55,-123 49,-123 49,-123 -73,-123 -73,-123 -79,-123 -85,-117 -85,-111 -85,-111 -85,123 -85,123 -85,129 -79,135 -73,135"/>
<text text-anchor="middle" x="-12" y="-107.8" font-family="Times New Roman,serif" font-size="14.00">RecruitmentsController</text>
<polyline fill="none" stroke="black" points="-85,-100 61,-100 "/>
<text text-anchor="start" x="-77" y="-84.8" font-family="Times New Roman,serif" font-size="14.00">create</text>
<text text-anchor="start" x="-77" y="-69.8" font-family="Times New Roman,serif" font-size="14.00">destroy</text>
<text text-anchor="start" x="-77" y="-54.8" font-family="Times New Roman,serif" font-size="14.00">edit</text>
<text text-anchor="start" x="-77" y="-39.8" font-family="Times New Roman,serif" font-size="14.00">index</text>
<text text-anchor="start" x="-77" y="-24.8" font-family="Times New Roman,serif" font-size="14.00">update</text>
<text text-anchor="start" x="-77" y="-9.8" font-family="Times New Roman,serif" font-size="14.00">add_result</text>
<polyline fill="none" stroke="black" points="-85,-2 61,-2 "/>
<polyline fill="none" stroke="black" points="-85,22 61,22 "/>
<text text-anchor="start" x="-77" y="37.2" font-family="Times New Roman,serif" font-size="14.00">add_answer</text>
<text text-anchor="start" x="-77" y="52.2" font-family="Times New Roman,serif" font-size="14.00">arry_tag_params</text>
<text text-anchor="start" x="-77" y="67.2" font-family="Times New Roman,serif" font-size="14.00">inputtag_params</text>
<text text-anchor="start" x="-77" y="82.2" font-family="Times New Roman,serif" font-size="14.00">recruitment_params</text>
<text text-anchor="start" x="-77" y="97.2" font-family="Times New Roman,serif" font-size="14.00">request_url</text>
<text text-anchor="start" x="-77" y="112.2" font-family="Times New Roman,serif" font-size="14.00">set_recruitment</text>
<text text-anchor="start" x="-77" y="127.2" font-family="Times New Roman,serif" font-size="14.00">_layout</text>
</g>
<!-- TagsController -->
<g id="node12" class="node"><title>TagsController</title>
<path fill="none" stroke="black" d="M-225.5,-239C-225.5,-239 -140.5,-239 -140.5,-239 -134.5,-239 -128.5,-245 -128.5,-251 -128.5,-251 -128.5,-365 -128.5,-365 -128.5,-371 -134.5,-377 -140.5,-377 -140.5,-377 -225.5,-377 -225.5,-377 -231.5,-377 -237.5,-371 -237.5,-365 -237.5,-365 -237.5,-251 -237.5,-251 -237.5,-245 -231.5,-239 -225.5,-239"/>
<text text-anchor="middle" x="-183" y="-361.8" font-family="Times New Roman,serif" font-size="14.00">TagsController</text>
<polyline fill="none" stroke="black" points="-237.5,-354 -128.5,-354 "/>
<text text-anchor="start" x="-229.5" y="-338.8" font-family="Times New Roman,serif" font-size="14.00">update</text>
<polyline fill="none" stroke="black" points="-237.5,-331 -128.5,-331 "/>
<polyline fill="none" stroke="black" points="-237.5,-307 -128.5,-307 "/>
<text text-anchor="start" x="-229.5" y="-291.8" font-family="Times New Roman,serif" font-size="14.00">add_taghistory</text>
<text text-anchor="start" x="-229.5" y="-276.8" font-family="Times New Roman,serif" font-size="14.00">inputtag_params</text>
<text text-anchor="start" x="-229.5" y="-261.8" font-family="Times New Roman,serif" font-size="14.00">set_taghistory</text>
<text text-anchor="start" x="-229.5" y="-246.8" font-family="Times New Roman,serif" font-size="14.00">_layout</text>
</g>
<!-- UnivtagController -->
<g id="node13" class="node"><title>UnivtagController</title>
<path fill="none" stroke="black" d="M352,339.5C352,339.5 444,339.5 444,339.5 450,339.5 456,333.5 456,327.5 456,327.5 456,258.5 456,258.5 456,252.5 450,246.5 444,246.5 444,246.5 352,246.5 352,246.5 346,246.5 340,252.5 340,258.5 340,258.5 340,327.5 340,327.5 340,333.5 346,339.5 352,339.5"/>
<text text-anchor="middle" x="398" y="261.7" font-family="Times New Roman,serif" font-size="14.00">UnivtagController</text>
<polyline fill="none" stroke="black" points="340,269.5 456,269.5 "/>
<text text-anchor="start" x="348" y="284.7" font-family="Times New Roman,serif" font-size="14.00">list</text>
<polyline fill="none" stroke="black" points="340,292.5 456,292.5 "/>
<polyline fill="none" stroke="black" points="340,316.5 456,316.5 "/>
<text text-anchor="start" x="348" y="331.7" font-family="Times New Roman,serif" font-size="14.00">_layout</text>
</g>
</g>
</svg>
