<?xml version="1.0" encoding="UTF-8" standalone="no"?>
<!DOCTYPE svg PUBLIC "-//W3C//DTD SVG 1.1//EN"
 "http://www.w3.org/Graphics/SVG/1.1/DTD/svg11.dtd">
<!-- Generated by graphviz version 2.38.0 (20140413.2041)
 -->
<!-- Title: controllers_diagram Pages: 1 -->
<svg width="732pt" height="782pt"
 viewBox="0.00 0.00 732.00 782.00" xmlns="http://www.w3.org/2000/svg" xmlns:xlink="http://www.w3.org/1999/xlink">
<g id="graph0" class="graph" transform="scale(1 1) rotate(0) translate(258.5 438)">
<title>controllers_diagram</title>
<polygon fill="none" stroke="none" points="-258.5,344 -258.5,-438 473.5,-438 473.5,344 -258.5,344"/>
<!-- _diagram_info -->
<g id="node1" class="node"><title>_diagram_info</title>
<text text-anchor="start" x="-246.5" y="191.4" font-family="Times New Roman,serif" font-size="13.00">Controllers diagram</text>
<text text-anchor="start" x="-246.5" y="205.4" font-family="Times New Roman,serif" font-size="13.00">Date: Dec 18 2018 &#45; 17:08</text>
<text text-anchor="start" x="-246.5" y="219.4" font-family="Times New Roman,serif" font-size="13.00">Migration version: 20181217023714</text>
<text text-anchor="start" x="-246.5" y="233.4" font-family="Times New Roman,serif" font-size="13.00">Generated by RailRoady 1.5.3</text>
<text text-anchor="start" x="-246.5" y="247.4" font-family="Times New Roman,serif" font-size="13.00">http://railroady.prestonlee.com</text>
</g>
<!-- Accounts::RegistrationsController -->
<g id="node2" class="node"><title>Accounts::RegistrationsController</title>
<path fill="none" stroke="black" d="M114,220C114,220 296,220 296,220 302,220 308,214 308,208 308,208 308,140 308,140 308,134 302,128 296,128 296,128 114,128 114,128 108,128 102,134 102,140 102,140 102,208 102,208 102,214 108,220 114,220"/>
<text text-anchor="middle" x="205" y="143.2" font-family="Times New Roman,serif" font-size="14.00">Accounts::RegistrationsController</text>
<polyline fill="none" stroke="black" points="102,151 308,151 "/>
<text text-anchor="start" x="110" y="166.2" font-family="Times New Roman,serif" font-size="14.00">confirm</text>
<polyline fill="none" stroke="black" points="102,174 308,174 "/>
<text text-anchor="start" x="110" y="189.2" font-family="Times New Roman,serif" font-size="14.00">after_update_path_for</text>
<polyline fill="none" stroke="black" points="102,197 308,197 "/>
<text text-anchor="start" x="110" y="212.2" font-family="Times New Roman,serif" font-size="14.00">_layout</text>
</g>
<!-- ApplicationController -->
<g id="node3" class="node"><title>ApplicationController</title>
<path fill="none" stroke="black" d="M284.5,101.5C284.5,101.5 457.5,101.5 457.5,101.5 463.5,101.5 469.5,95.5 469.5,89.5 469.5,89.5 469.5,20.5 469.5,20.5 469.5,14.5 463.5,8.5 457.5,8.5 457.5,8.5 284.5,8.5 284.5,8.5 278.5,8.5 272.5,14.5 272.5,20.5 272.5,20.5 272.5,89.5 272.5,89.5 272.5,95.5 278.5,101.5 284.5,101.5"/>
<text text-anchor="middle" x="371" y="23.7" font-family="Times New Roman,serif" font-size="14.00">ApplicationController</text>
<polyline fill="none" stroke="black" points="272.5,31.5 469.5,31.5 "/>
<polyline fill="none" stroke="black" points="272.5,55.5 469.5,55.5 "/>
<text text-anchor="start" x="280.5" y="70.7" font-family="Times New Roman,serif" font-size="14.00">configure_permitted_parameters</text>
<polyline fill="none" stroke="black" points="272.5,78.5 469.5,78.5 "/>
<text text-anchor="start" x="280.5" y="93.7" font-family="Times New Roman,serif" font-size="14.00">_layout</text>
</g>
<!-- BookmarksController -->
<g id="node4" class="node"><title>BookmarksController</title>
<path fill="none" stroke="black" d="M-242.5,-0.5C-242.5,-0.5 -129.5,-0.5 -129.5,-0.5 -123.5,-0.5 -117.5,-6.5 -117.5,-12.5 -117.5,-12.5 -117.5,-141.5 -117.5,-141.5 -117.5,-147.5 -123.5,-153.5 -129.5,-153.5 -129.5,-153.5 -242.5,-153.5 -242.5,-153.5 -248.5,-153.5 -254.5,-147.5 -254.5,-141.5 -254.5,-141.5 -254.5,-12.5 -254.5,-12.5 -254.5,-6.5 -248.5,-0.5 -242.5,-0.5"/>
<text text-anchor="middle" x="-186" y="-138.3" font-family="Times New Roman,serif" font-size="14.00">BookmarksController</text>
<polyline fill="none" stroke="black" points="-254.5,-130.5 -117.5,-130.5 "/>
<text text-anchor="start" x="-246.5" y="-115.3" font-family="Times New Roman,serif" font-size="14.00">destroy</text>
<text text-anchor="start" x="-246.5" y="-100.3" font-family="Times New Roman,serif" font-size="14.00">index</text>
<text text-anchor="start" x="-246.5" y="-85.3" font-family="Times New Roman,serif" font-size="14.00">create</text>
<polyline fill="none" stroke="black" points="-254.5,-77.5 -117.5,-77.5 "/>
<polyline fill="none" stroke="black" points="-254.5,-53.5 -117.5,-53.5 "/>
<text text-anchor="start" x="-246.5" y="-38.3" font-family="Times New Roman,serif" font-size="14.00">bookmark_params</text>
<text text-anchor="start" x="-246.5" y="-23.3" font-family="Times New Roman,serif" font-size="14.00">set_bookmark</text>
<text text-anchor="start" x="-246.5" y="-8.3" font-family="Times New Roman,serif" font-size="14.00">_layout</text>
</g>
<!-- ChatCommentsController -->
<g id="node5" class="node"><title>ChatCommentsController</title>
<path fill="none" stroke="black" d="M-22,-153.5C-22,-153.5 114,-153.5 114,-153.5 120,-153.5 126,-159.5 126,-165.5 126,-165.5 126,-294.5 126,-294.5 126,-300.5 120,-306.5 114,-306.5 114,-306.5 -22,-306.5 -22,-306.5 -28,-306.5 -34,-300.5 -34,-294.5 -34,-294.5 -34,-165.5 -34,-165.5 -34,-159.5 -28,-153.5 -22,-153.5"/>
<text text-anchor="middle" x="46" y="-291.3" font-family="Times New Roman,serif" font-size="14.00">ChatCommentsController</text>
<polyline fill="none" stroke="black" points="-34,-283.5 126,-283.5 "/>
<text text-anchor="start" x="-26" y="-268.3" font-family="Times New Roman,serif" font-size="14.00">destroy</text>
<text text-anchor="start" x="-26" y="-253.3" font-family="Times New Roman,serif" font-size="14.00">index</text>
<text text-anchor="start" x="-26" y="-238.3" font-family="Times New Roman,serif" font-size="14.00">create</text>
<polyline fill="none" stroke="black" points="-34,-230.5 126,-230.5 "/>
<polyline fill="none" stroke="black" points="-34,-206.5 126,-206.5 "/>
<text text-anchor="start" x="-26" y="-191.3" font-family="Times New Roman,serif" font-size="14.00">chat_comment_params</text>
<text text-anchor="start" x="-26" y="-176.3" font-family="Times New Roman,serif" font-size="14.00">set_chat_comment</text>
<text text-anchor="start" x="-26" y="-161.3" font-family="Times New Roman,serif" font-size="14.00">_layout</text>
</g>
<!-- CommentsController -->
<g id="node6" class="node"><title>CommentsController</title>
<path fill="none" stroke="black" d="M-192,-205C-192,-205 -82,-205 -82,-205 -76,-205 -70,-211 -70,-217 -70,-217 -70,-361 -70,-361 -70,-367 -76,-373 -82,-373 -82,-373 -192,-373 -192,-373 -198,-373 -204,-367 -204,-361 -204,-361 -204,-217 -204,-217 -204,-211 -198,-205 -192,-205"/>
<text text-anchor="middle" x="-137" y="-357.8" font-family="Times New Roman,serif" font-size="14.00">CommentsController</text>
<polyline fill="none" stroke="black" points="-204,-350 -70,-350 "/>
<text text-anchor="start" x="-196" y="-334.8" font-family="Times New Roman,serif" font-size="14.00">create</text>
<text text-anchor="start" x="-196" y="-319.8" font-family="Times New Roman,serif" font-size="14.00">destroy</text>
<text text-anchor="start" x="-196" y="-304.8" font-family="Times New Roman,serif" font-size="14.00">index</text>
<text text-anchor="start" x="-196" y="-289.8" font-family="Times New Roman,serif" font-size="14.00">add_index</text>
<polyline fill="none" stroke="black" points="-204,-282 -70,-282 "/>
<polyline fill="none" stroke="black" points="-204,-258 -70,-258 "/>
<text text-anchor="start" x="-196" y="-242.8" font-family="Times New Roman,serif" font-size="14.00">comment_params</text>
<text text-anchor="start" x="-196" y="-227.8" font-family="Times New Roman,serif" font-size="14.00">set_comment</text>
<text text-anchor="start" x="-196" y="-212.8" font-family="Times New Roman,serif" font-size="14.00">_layout</text>
</g>
<!-- EntryChatsController -->
<g id="node7" class="node"><title>EntryChatsController</title>
<path fill="none" stroke="black" d="M114.5,101C114.5,101 225.5,101 225.5,101 231.5,101 237.5,95 237.5,89 237.5,89 237.5,-115 237.5,-115 237.5,-121 231.5,-127 225.5,-127 225.5,-127 114.5,-127 114.5,-127 108.5,-127 102.5,-121 102.5,-115 102.5,-115 102.5,89 102.5,89 102.5,95 108.5,101 114.5,101"/>
<text text-anchor="middle" x="170" y="-111.8" font-family="Times New Roman,serif" font-size="14.00">EntryChatsController</text>
<polyline fill="none" stroke="black" points="102.5,-104 237.5,-104 "/>
<text text-anchor="start" x="110.5" y="-88.8" font-family="Times New Roman,serif" font-size="14.00">create</text>
<text text-anchor="start" x="110.5" y="-73.8" font-family="Times New Roman,serif" font-size="14.00">destroy</text>
<text text-anchor="start" x="110.5" y="-58.8" font-family="Times New Roman,serif" font-size="14.00">edit</text>
<text text-anchor="start" x="110.5" y="-43.8" font-family="Times New Roman,serif" font-size="14.00">index</text>
<text text-anchor="start" x="110.5" y="-28.8" font-family="Times New Roman,serif" font-size="14.00">new</text>
<text text-anchor="start" x="110.5" y="-13.8" font-family="Times New Roman,serif" font-size="14.00">show</text>
<text text-anchor="start" x="110.5" y="1.2" font-family="Times New Roman,serif" font-size="14.00">update</text>
<text text-anchor="start" x="110.5" y="16.2" font-family="Times New Roman,serif" font-size="14.00">add_result</text>
<polyline fill="none" stroke="black" points="102.5,24 237.5,24 "/>
<polyline fill="none" stroke="black" points="102.5,48 237.5,48 "/>
<text text-anchor="start" x="110.5" y="63.2" font-family="Times New Roman,serif" font-size="14.00">entry_chat_params</text>
<text text-anchor="start" x="110.5" y="78.2" font-family="Times New Roman,serif" font-size="14.00">set_entry_chat</text>
<text text-anchor="start" x="110.5" y="93.2" font-family="Times New Roman,serif" font-size="14.00">_layout</text>
</g>
<!-- HomeController -->
<g id="node8" class="node"><title>HomeController</title>
<path fill="none" stroke="black" d="M318.5,-205C318.5,-205 401.5,-205 401.5,-205 407.5,-205 413.5,-211 413.5,-217 413.5,-217 413.5,-331 413.5,-331 413.5,-337 407.5,-343 401.5,-343 401.5,-343 318.5,-343 318.5,-343 312.5,-343 306.5,-337 306.5,-331 306.5,-331 306.5,-217 306.5,-217 306.5,-211 312.5,-205 318.5,-205"/>
<text text-anchor="middle" x="360" y="-327.8" font-family="Times New Roman,serif" font-size="14.00">HomeController</text>
<polyline fill="none" stroke="black" points="306.5,-320 413.5,-320 "/>
<text text-anchor="start" x="314.5" y="-304.8" font-family="Times New Roman,serif" font-size="14.00">delete</text>
<text text-anchor="start" x="314.5" y="-289.8" font-family="Times New Roman,serif" font-size="14.00">index</text>
<text text-anchor="start" x="314.5" y="-274.8" font-family="Times New Roman,serif" font-size="14.00">show</text>
<text text-anchor="start" x="314.5" y="-259.8" font-family="Times New Roman,serif" font-size="14.00">button</text>
<polyline fill="none" stroke="black" points="306.5,-252 413.5,-252 "/>
<polyline fill="none" stroke="black" points="306.5,-228 413.5,-228 "/>
<text text-anchor="start" x="314.5" y="-212.8" font-family="Times New Roman,serif" font-size="14.00">_layout</text>
</g>
<!-- MainsController -->
<g id="node9" class="node"><title>MainsController</title>
<path fill="none" stroke="black" d="M352.5,339.5C352.5,339.5 437.5,339.5 437.5,339.5 443.5,339.5 449.5,333.5 449.5,327.5 449.5,327.5 449.5,198.5 449.5,198.5 449.5,192.5 443.5,186.5 437.5,186.5 437.5,186.5 352.5,186.5 352.5,186.5 346.5,186.5 340.5,192.5 340.5,198.5 340.5,198.5 340.5,327.5 340.5,327.5 340.5,333.5 346.5,339.5 352.5,339.5"/>
<text text-anchor="middle" x="395" y="201.7" font-family="Times New Roman,serif" font-size="14.00">MainsController</text>
<polyline fill="none" stroke="black" points="340.5,209.5 449.5,209.5 "/>
<text text-anchor="start" x="348.5" y="224.7" font-family="Times New Roman,serif" font-size="14.00">button_form</text>
<text text-anchor="start" x="348.5" y="239.7" font-family="Times New Roman,serif" font-size="14.00">button_view</text>
<text text-anchor="start" x="348.5" y="254.7" font-family="Times New Roman,serif" font-size="14.00">index</text>
<text text-anchor="start" x="348.5" y="269.7" font-family="Times New Roman,serif" font-size="14.00">inputtag_params</text>
<text text-anchor="start" x="348.5" y="284.7" font-family="Times New Roman,serif" font-size="14.00">add_index</text>
<polyline fill="none" stroke="black" points="340.5,292.5 449.5,292.5 "/>
<polyline fill="none" stroke="black" points="340.5,316.5 449.5,316.5 "/>
<text text-anchor="start" x="348.5" y="331.7" font-family="Times New Roman,serif" font-size="14.00">_layout</text>
</g>
<!-- MembersController -->
<g id="node10" class="node"><title>MembersController</title>
<path fill="none" stroke="black" d="M-225.5,135.5C-225.5,135.5 -124.5,135.5 -124.5,135.5 -118.5,135.5 -112.5,129.5 -112.5,123.5 -112.5,123.5 -112.5,54.5 -112.5,54.5 -112.5,48.5 -118.5,42.5 -124.5,42.5 -124.5,42.5 -225.5,42.5 -225.5,42.5 -231.5,42.5 -237.5,48.5 -237.5,54.5 -237.5,54.5 -237.5,123.5 -237.5,123.5 -237.5,129.5 -231.5,135.5 -225.5,135.5"/>
<text text-anchor="middle" x="-175" y="57.7" font-family="Times New Roman,serif" font-size="14.00">MembersController</text>
<polyline fill="none" stroke="black" points="-237.5,65.5 -112.5,65.5 "/>
<text text-anchor="start" x="-229.5" y="80.7" font-family="Times New Roman,serif" font-size="14.00">index</text>
<polyline fill="none" stroke="black" points="-237.5,88.5 -112.5,88.5 "/>
<polyline fill="none" stroke="black" points="-237.5,112.5 -112.5,112.5 "/>
<text text-anchor="start" x="-229.5" y="127.7" font-family="Times New Roman,serif" font-size="14.00">_layout</text>
</g>
<!-- PicturesController -->
<g id="node11" class="node"><title>PicturesController</title>
<path fill="none" stroke="black" d="M165,-153.5C165,-153.5 259,-153.5 259,-153.5 265,-153.5 271,-159.5 271,-165.5 271,-165.5 271,-354.5 271,-354.5 271,-360.5 265,-366.5 259,-366.5 259,-366.5 165,-366.5 165,-366.5 159,-366.5 153,-360.5 153,-354.5 153,-354.5 153,-165.5 153,-165.5 153,-159.5 159,-153.5 165,-153.5"/>
<text text-anchor="middle" x="212" y="-351.3" font-family="Times New Roman,serif" font-size="14.00">PicturesController</text>
<polyline fill="none" stroke="black" points="153,-343.5 271,-343.5 "/>
<text text-anchor="start" x="161" y="-328.3" font-family="Times New Roman,serif" font-size="14.00">destroy</text>
<text text-anchor="start" x="161" y="-313.3" font-family="Times New Roman,serif" font-size="14.00">edit</text>
<text text-anchor="start" x="161" y="-298.3" font-family="Times New Roman,serif" font-size="14.00">index</text>
<text text-anchor="start" x="161" y="-283.3" font-family="Times New Roman,serif" font-size="14.00">new</text>
<text text-anchor="start" x="161" y="-268.3" font-family="Times New Roman,serif" font-size="14.00">show</text>
<text text-anchor="start" x="161" y="-253.3" font-family="Times New Roman,serif" font-size="14.00">update</text>
<text text-anchor="start" x="161" y="-238.3" font-family="Times New Roman,serif" font-size="14.00">create</text>
<polyline fill="none" stroke="black" points="153,-230.5 271,-230.5 "/>
<polyline fill="none" stroke="black" points="153,-206.5 271,-206.5 "/>
<text text-anchor="start" x="161" y="-191.3" font-family="Times New Roman,serif" font-size="14.00">picture_params</text>
<text text-anchor="start" x="161" y="-176.3" font-family="Times New Roman,serif" font-size="14.00">set_picture</text>
<text text-anchor="start" x="161" y="-161.3" font-family="Times New Roman,serif" font-size="14.00">_layout</text>
</g>
<!-- RecruitmentsController -->
<g id="node12" class="node"><title>RecruitmentsController</title>
<path fill="none" stroke="black" d="M-73,135C-73,135 49,135 49,135 55,135 61,129 61,123 61,123 61,-111 61,-111 61,-117 55,-123 49,-123 49,-123 -73,-123 -73,-123 -79,-123 -85,-117 -85,-111 -85,-111 -85,123 -85,123 -85,129 -79,135 -73,135"/>
<text text-anchor="middle" x="-12" y="-107.8" font-family="Times New Roman,serif" font-size="14.00">RecruitmentsController</text>
<polyline fill="none" stroke="black" points="-85,-100 61,-100 "/>
<text text-anchor="start" x="-77" y="-84.8" font-family="Times New Roman,serif" font-size="14.00">create</text>
<text text-anchor="start" x="-77" y="-69.8" font-family="Times New Roman,serif" font-size="14.00">destroy</text>
<text text-anchor="start" x="-77" y="-54.8" font-family="Times New Roman,serif" font-size="14.00">edit</text>
<text text-anchor="start" x="-77" y="-39.8" font-family="Times New Roman,serif" font-size="14.00">index</text>
<text text-anchor="start" x="-77" y="-24.8" font-family="Times New Roman,serif" font-size="14.00">update</text>
<text text-anchor="start" x="-77" y="-9.8" font-family="Times New Roman,serif" font-size="14.00">add_result</text>
<polyline fill="none" stroke="black" points="-85,-2 61,-2 "/>
<polyline fill="none" stroke="black" points="-85,22 61,22 "/>
<text text-anchor="start" x="-77" y="37.2" font-family="Times New Roman,serif" font-size="14.00">add_answer</text>
<text text-anchor="start" x="-77" y="52.2" font-family="Times New Roman,serif" font-size="14.00">arry_tag_params</text>
<text text-anchor="start" x="-77" y="67.2" font-family="Times New Roman,serif" font-size="14.00">inputtag_params</text>
<text text-anchor="start" x="-77" y="82.2" font-family="Times New Roman,serif" font-size="14.00">recruitment_params</text>
<text text-anchor="start" x="-77" y="97.2" font-family="Times New Roman,serif" font-size="14.00">request_url</text>
<text text-anchor="start" x="-77" y="112.2" font-family="Times New Roman,serif" font-size="14.00">set_recruitment</text>
<text text-anchor="start" x="-77" y="127.2" font-family="Times New Roman,serif" font-size="14.00">_layout</text>
</g>
<!-- TagsController -->
<g id="node13" class="node"><title>TagsController</title>
<path fill="none" stroke="black" d="M318.5,-35C318.5,-35 403.5,-35 403.5,-35 409.5,-35 415.5,-41 415.5,-47 415.5,-47 415.5,-161 415.5,-161 415.5,-167 409.5,-173 403.5,-173 403.5,-173 318.5,-173 318.5,-173 312.5,-173 306.5,-167 306.5,-161 306.5,-161 306.5,-47 306.5,-47 306.5,-41 312.5,-35 318.5,-35"/>
<text text-anchor="middle" x="361" y="-157.8" font-family="Times New Roman,serif" font-size="14.00">TagsController</text>
<polyline fill="none" stroke="black" points="306.5,-150 415.5,-150 "/>
<text text-anchor="start" x="314.5" y="-134.8" font-family="Times New Roman,serif" font-size="14.00">update</text>
<polyline fill="none" stroke="black" points="306.5,-127 415.5,-127 "/>
<polyline fill="none" stroke="black" points="306.5,-103 415.5,-103 "/>
<text text-anchor="start" x="314.5" y="-87.8" font-family="Times New Roman,serif" font-size="14.00">add_taghistory</text>
<text text-anchor="start" x="314.5" y="-72.8" font-family="Times New Roman,serif" font-size="14.00">inputtag_params</text>
<text text-anchor="start" x="314.5" y="-57.8" font-family="Times New Roman,serif" font-size="14.00">set_taghistory</text>
<text text-anchor="start" x="314.5" y="-42.8" font-family="Times New Roman,serif" font-size="14.00">_layout</text>
</g>
<!-- UnivtagController -->
<g id="node14" class="node"><title>UnivtagController</title>
<path fill="none" stroke="black" d="M12,-340.5C12,-340.5 104,-340.5 104,-340.5 110,-340.5 116,-346.5 116,-352.5 116,-352.5 116,-421.5 116,-421.5 116,-427.5 110,-433.5 104,-433.5 104,-433.5 12,-433.5 12,-433.5 6,-433.5 0,-427.5 0,-421.5 0,-421.5 0,-352.5 0,-352.5 0,-346.5 6,-340.5 12,-340.5"/>
<text text-anchor="middle" x="58" y="-418.3" font-family="Times New Roman,serif" font-size="14.00">UnivtagController</text>
<polyline fill="none" stroke="black" points="0,-410.5 116,-410.5 "/>
<text text-anchor="start" x="8" y="-395.3" font-family="Times New Roman,serif" font-size="14.00">list</text>
<polyline fill="none" stroke="black" points="0,-387.5 116,-387.5 "/>
<polyline fill="none" stroke="black" points="0,-363.5 116,-363.5 "/>
<text text-anchor="start" x="8" y="-348.3" font-family="Times New Roman,serif" font-size="14.00">_layout</text>
</g>
</g>
</svg>
