<?xml version="1.0" encoding="UTF-8" standalone="no"?>
<!DOCTYPE svg PUBLIC "-//W3C//DTD SVG 1.1//EN"
 "http://www.w3.org/Graphics/SVG/1.1/DTD/svg11.dtd">
<!-- Generated by graphviz version 2.38.0 (20140413.2041)
 -->
<!-- Title: models_diagram Pages: 1 -->
<svg width="1140pt" height="230pt"
 viewBox="0.00 0.00 1139.75 230.00" xmlns="http://www.w3.org/2000/svg" xmlns:xlink="http://www.w3.org/1999/xlink">
<g id="graph0" class="graph" transform="scale(1 1) rotate(0) translate(4 226)">
<title>models_diagram</title>
<polygon fill="none" stroke="none" points="-4,4 -4,-226 1135.75,-226 1135.75,4 -4,4"/>
<!-- _diagram_info -->
<g id="node1" class="node"><title>_diagram_info</title>
<text text-anchor="start" x="8" y="-207.6" font-family="Times New Roman,serif" font-size="13.00">Models diagram</text>
<text text-anchor="start" x="8" y="-193.6" font-family="Times New Roman,serif" font-size="13.00">Date: Dec 18 2018 &#45; 17:08</text>
<text text-anchor="start" x="8" y="-179.6" font-family="Times New Roman,serif" font-size="13.00">Migration version: 20181217023714</text>
<text text-anchor="start" x="8" y="-165.6" font-family="Times New Roman,serif" font-size="13.00">Generated by RailRoady 1.5.3</text>
<text text-anchor="start" x="8" y="-151.6" font-family="Times New Roman,serif" font-size="13.00">http://railroady.prestonlee.com</text>
</g>
<!-- Account -->
<g id="node2" class="node"><title>Account</title>
<ellipse fill="none" stroke="black" cx="269.5" cy="-183" rx="42.4939" ry="18"/>
<text text-anchor="middle" x="269.5" y="-179.3" font-family="Times New Roman,serif" font-size="14.00">Account</text>
</g>
<!-- Bookmark -->
<g id="node4" class="node"><title>Bookmark</title>
<ellipse fill="none" stroke="black" cx="186.5" cy="-18" rx="48.9926" ry="18"/>
<text text-anchor="middle" x="186.5" y="-14.3" font-family="Times New Roman,serif" font-size="14.00">Bookmark</text>
</g>
<!-- Account&#45;&gt;Bookmark -->
<g id="edge5" class="edge"><title>Account&#45;&gt;Bookmark</title>
<path fill="none" stroke="#5b8a4a" d="M245.697,-160.532C231.925,-146.816 215.408,-127.913 205.5,-108 195.851,-88.6076 191.088,-64.4615 188.744,-46.2146"/>
<ellipse fill="none" stroke="#5b8a4a" cx="248.928" cy="-163.668" rx="4.00002" ry="4.00002"/>
<polygon fill="#5b8a4a" stroke="#5b8a4a" points="188.74,-46.1711 192.098,-35.7321 188.183,-41.2022 187.626,-36.2333 187.626,-36.2333 187.626,-36.2333 188.183,-41.2022 183.154,-36.7346 188.74,-46.1711 188.74,-46.1711"/>
</g>
<!-- ChatComment -->
<g id="node6" class="node"><title>ChatComment</title>
<ellipse fill="none" stroke="black" cx="316.5" cy="-18" rx="63.8893" ry="18"/>
<text text-anchor="middle" x="316.5" y="-14.3" font-family="Times New Roman,serif" font-size="14.00">ChatComment</text>
</g>
<!-- Account&#45;&gt;ChatComment -->
<g id="edge4" class="edge"><title>Account&#45;&gt;ChatComment</title>
<path fill="none" stroke="#51a070" d="M294.738,-161.292C309.094,-147.812 325.719,-128.892 333.5,-108 341.097,-87.6015 335.515,-63.2518 328.781,-45.1821"/>
<ellipse fill="none" stroke="#51a070" cx="291.718" cy="-164.036" rx="4.00002" ry="4.00002"/>
<polygon fill="#51a070" stroke="#51a070" points="328.756,-45.1213 329.167,-34.1631 326.877,-40.4879 324.997,-35.8545 324.997,-35.8545 324.997,-35.8545 326.877,-40.4879 320.827,-37.5459 328.756,-45.1213 328.756,-45.1213"/>
</g>
<!-- Comment -->
<g id="node7" class="node"><title>Comment</title>
<ellipse fill="none" stroke="black" cx="444.5" cy="-18" rx="46.2923" ry="18"/>
<text text-anchor="middle" x="444.5" y="-14.3" font-family="Times New Roman,serif" font-size="14.00">Comment</text>
</g>
<!-- Account&#45;&gt;Comment -->
<g id="edge2" class="edge"><title>Account&#45;&gt;Comment</title>
<path fill="none" stroke="#3262a3" d="M292.55,-160.53C325.568,-129.776 386.069,-73.4241 419.916,-41.8987"/>
<ellipse fill="none" stroke="#3262a3" cx="289.207" cy="-163.645" rx="4.00002" ry="4.00002"/>
<polygon fill="#3262a3" stroke="#3262a3" points="420.196,-41.6371 430.581,-38.1142 423.855,-38.2292 427.514,-34.8213 427.514,-34.8213 427.514,-34.8213 423.855,-38.2292 424.447,-31.5284 420.196,-41.6371 420.196,-41.6371"/>
</g>
<!-- EntryChat -->
<g id="node8" class="node"><title>EntryChat</title>
<ellipse fill="none" stroke="black" cx="72.5" cy="-18" rx="47.3916" ry="18"/>
<text text-anchor="middle" x="72.5" y="-14.3" font-family="Times New Roman,serif" font-size="14.00">EntryChat</text>
</g>
<!-- Account&#45;&gt;EntryChat -->
<g id="edge3" class="edge"><title>Account&#45;&gt;EntryChat</title>
<path fill="none" stroke="#c69ac4" d="M244.417,-161.246C207.243,-130.488 137.807,-73.0354 99.5371,-41.3708"/>
<ellipse fill="none" stroke="#c69ac4" cx="247.885" cy="-164.115" rx="4.00002" ry="4.00002"/>
<polygon fill="#c69ac4" stroke="#c69ac4" points="99.121,-41.0266 94.2851,-31.1846 95.2687,-37.8391 91.4164,-34.6517 91.4164,-34.6517 91.4164,-34.6517 95.2687,-37.8391 88.5477,-38.1187 99.121,-41.0266 99.121,-41.0266"/>
</g>
<!-- Recruitment -->
<g id="node12" class="node"><title>Recruitment</title>
<ellipse fill="none" stroke="black" cx="269.5" cy="-90" rx="54.6905" ry="18"/>
<text text-anchor="middle" x="269.5" y="-86.3" font-family="Times New Roman,serif" font-size="14.00">Recruitment</text>
</g>
<!-- Account&#45;&gt;Recruitment -->
<g id="edge1" class="edge"><title>Account&#45;&gt;Recruitment</title>
<path fill="none" stroke="#d8598d" d="M269.5,-156.729C269.5,-144.725 269.5,-130.362 269.5,-118.129"/>
<ellipse fill="none" stroke="#d8598d" cx="269.5" cy="-160.884" rx="4" ry="4"/>
<polygon fill="#d8598d" stroke="#d8598d" points="269.5,-118.04 274,-108.04 269.5,-113.04 269.5,-108.04 269.5,-108.04 269.5,-108.04 269.5,-113.04 265,-108.04 269.5,-118.04 269.5,-118.04"/>
</g>
<!-- ApplicationRecord -->
<g id="node3" class="node"><title>ApplicationRecord</title>
<ellipse fill="none" stroke="black" cx="409.5" cy="-183" rx="79.8859" ry="18"/>
<text text-anchor="middle" x="409.5" y="-179.3" font-family="Times New Roman,serif" font-size="14.00">ApplicationRecord</text>
</g>
<!-- Chat -->
<g id="node5" class="node"><title>Chat</title>
<ellipse fill="none" stroke="black" cx="535.5" cy="-183" rx="27.8951" ry="18"/>
<text text-anchor="middle" x="535.5" y="-179.3" font-family="Times New Roman,serif" font-size="14.00">Chat</text>
</g>
<!-- Inputtag -->
<g id="node9" class="node"><title>Inputtag</title>
<polygon fill="none" stroke="black" points="643.5,-201 581.5,-201 581.5,-165 643.5,-165 643.5,-201"/>
<text text-anchor="middle" x="612.5" y="-179.3" font-family="Times New Roman,serif" font-size="14.00">Inputtag</text>
</g>
<!-- Job -->
<g id="node10" class="node"><title>Job</title>
<ellipse fill="none" stroke="black" cx="688.5" cy="-183" rx="27" ry="18"/>
<text text-anchor="middle" x="688.5" y="-179.3" font-family="Times New Roman,serif" font-size="14.00">Job</text>
</g>
<!-- Picture -->
<g id="node11" class="node"><title>Picture</title>
<ellipse fill="none" stroke="black" cx="769.5" cy="-183" rx="36.2938" ry="18"/>
<text text-anchor="middle" x="769.5" y="-179.3" font-family="Times New Roman,serif" font-size="14.00">Picture</text>
</g>
<!-- Recruitment&#45;&gt;Bookmark -->
<g id="edge10" class="edge"><title>Recruitment&#45;&gt;Bookmark</title>
<path fill="none" stroke="#d88b10" d="M243.924,-67.4299C234.019,-59.0761 222.687,-49.519 212.721,-41.1142"/>
<ellipse fill="none" stroke="#d88b10" cx="247.192" cy="-70.1858" rx="4.00002" ry="4.00002"/>
<polygon fill="#d88b10" stroke="#d88b10" points="212.72,-41.1128 207.976,-31.2258 208.897,-37.8893 205.075,-34.6658 205.075,-34.6658 205.075,-34.6658 208.897,-37.8893 202.174,-38.1057 212.72,-41.1128 212.72,-41.1128"/>
</g>
<!-- Recruitment&#45;&gt;ChatComment -->
<g id="edge8" class="edge"><title>Recruitment&#45;&gt;ChatComment</title>
<path fill="none" stroke="#d0d37e" d="M285.426,-65.28C289.998,-58.4704 294.999,-51.0228 299.626,-44.1312"/>
<ellipse fill="none" stroke="#d0d37e" cx="283.107" cy="-68.7341" rx="4.00002" ry="4.00002"/>
<polygon fill="#d0d37e" stroke="#d0d37e" points="299.653,-44.0912 308.963,-38.2975 302.44,-39.9401 305.227,-35.789 305.227,-35.789 305.227,-35.789 302.44,-39.9401 301.491,-33.2805 299.653,-44.0912 299.653,-44.0912"/>
</g>
<!-- Recruitment&#45;&gt;Comment -->
<g id="edge6" class="edge"><title>Recruitment&#45;&gt;Comment</title>
<path fill="none" stroke="#f1d503" d="M310.562,-72.575C338.683,-61.3267 375.814,-46.4746 403.846,-35.2614"/>
<ellipse fill="none" stroke="#f1d503" cx="306.542" cy="-74.1832" rx="4.00001" ry="4.00001"/>
<polygon fill="#f1d503" stroke="#f1d503" points="404.068,-35.1728 415.024,-35.637 408.711,-33.3158 413.353,-31.4588 413.353,-31.4588 413.353,-31.4588 408.711,-33.3158 411.682,-27.2807 404.068,-35.1728 404.068,-35.1728"/>
</g>
<!-- Recruitment&#45;&gt;EntryChat -->
<g id="edge7" class="edge"><title>Recruitment&#45;&gt;EntryChat</title>
<path fill="none" stroke="#812a2e" d="M225.876,-73.4992C193.078,-61.8451 148.359,-45.9548 115.671,-34.3399"/>
<ellipse fill="none" stroke="#812a2e" cx="230.056" cy="-74.9842" rx="4.00001" ry="4.00001"/>
<polygon fill="#812a2e" stroke="#812a2e" points="115.362,-34.2303 107.446,-26.6417 110.651,-32.5561 105.939,-30.882 105.939,-30.882 105.939,-30.882 110.651,-32.5561 104.433,-35.1222 115.362,-34.2303 115.362,-34.2303"/>
</g>
<!-- Tagmap -->
<g id="node16" class="node"><title>Tagmap</title>
<ellipse fill="none" stroke="black" cx="548.5" cy="-18" rx="40.0939" ry="18"/>
<text text-anchor="middle" x="548.5" y="-14.3" font-family="Times New Roman,serif" font-size="14.00">Tagmap</text>
</g>
<!-- Recruitment&#45;&gt;Tagmap -->
<g id="edge9" class="edge"><title>Recruitment&#45;&gt;Tagmap</title>
<path fill="none" stroke="#afe222" d="M323.157,-78.3412C370.038,-68.624 439.754,-53.1942 499.5,-36 502.476,-35.1436 505.537,-34.2105 508.605,-33.2367"/>
<ellipse fill="none" stroke="#afe222" cx="319.173" cy="-79.1621" rx="4.00001" ry="4.00001"/>
<polygon fill="#afe222" stroke="#afe222" points="508.843,-33.1586 519.749,-34.3069 513.593,-31.5955 518.342,-30.0324 518.342,-30.0324 518.342,-30.0324 513.593,-31.5955 516.935,-25.7579 508.843,-33.1586 508.843,-33.1586"/>
</g>
<!-- Tag -->
<g id="node13" class="node"><title>Tag</title>
<ellipse fill="none" stroke="black" cx="548.5" cy="-90" rx="27" ry="18"/>
<text text-anchor="middle" x="548.5" y="-86.3" font-family="Times New Roman,serif" font-size="14.00">Tag</text>
</g>
<!-- Tag&#45;&gt;Tagmap -->
<g id="edge11" class="edge"><title>Tag&#45;&gt;Tagmap</title>
<path fill="none" stroke="#3c7f97" d="M548.5,-63.6398C548.5,-58.0629 548.5,-52.1319 548.5,-46.4761"/>
<ellipse fill="none" stroke="#3c7f97" cx="548.5" cy="-67.6966" rx="4" ry="4"/>
<polygon fill="#3c7f97" stroke="#3c7f97" points="548.5,-46.1043 553,-36.1043 548.5,-41.1043 548.5,-36.1043 548.5,-36.1043 548.5,-36.1043 548.5,-41.1043 544,-36.1044 548.5,-46.1043 548.5,-46.1043"/>
</g>
<!-- Taghistory -->
<g id="node14" class="node"><title>Taghistory</title>
<ellipse fill="none" stroke="black" cx="873.5" cy="-183" rx="50.0912" ry="18"/>
<text text-anchor="middle" x="873.5" y="-179.3" font-family="Times New Roman,serif" font-size="14.00">Taghistory</text>
</g>
<!-- Taghistoryid -->
<g id="node15" class="node"><title>Taghistoryid</title>
<polygon fill="none" stroke="black" points="1029,-201 942,-201 942,-165 1029,-165 1029,-201"/>
<text text-anchor="middle" x="985.5" y="-179.3" font-family="Times New Roman,serif" font-size="14.00">Taghistoryid</text>
</g>
<!-- Univinfo -->
<g id="node17" class="node"><title>Univinfo</title>
<ellipse fill="none" stroke="black" cx="1089.5" cy="-183" rx="42.4939" ry="18"/>
<text text-anchor="middle" x="1089.5" y="-179.3" font-family="Times New Roman,serif" font-size="14.00">Univinfo</text>
</g>
</g>
</svg>
