<?xml version="1.0" encoding="UTF-8" standalone="no"?>
<!DOCTYPE svg PUBLIC "-//W3C//DTD SVG 1.1//EN"
 "http://www.w3.org/Graphics/SVG/1.1/DTD/svg11.dtd">
<!-- Generated by graphviz version 2.38.0 (20140413.2041)
 -->
<!-- Title: models_diagram Pages: 1 -->
<svg width="1149pt" height="230pt"
 viewBox="0.00 0.00 1148.75 230.00" xmlns="http://www.w3.org/2000/svg" xmlns:xlink="http://www.w3.org/1999/xlink">
<g id="graph0" class="graph" transform="scale(1 1) rotate(0) translate(4 226)">
<title>models_diagram</title>
<polygon fill="none" stroke="none" points="-4,4 -4,-226 1144.75,-226 1144.75,4 -4,4"/>
<!-- _diagram_info -->
<g id="node1" class="node"><title>_diagram_info</title>
<text text-anchor="start" x="8" y="-207.6" font-family="Times New Roman,serif" font-size="13.00">Models diagram</text>
<text text-anchor="start" x="8" y="-193.6" font-family="Times New Roman,serif" font-size="13.00">Date: Dec 17 2018 &#45; 14:30</text>
<text text-anchor="start" x="8" y="-179.6" font-family="Times New Roman,serif" font-size="13.00">Migration version: 20181217023714</text>
<text text-anchor="start" x="8" y="-165.6" font-family="Times New Roman,serif" font-size="13.00">Generated by RailRoady 1.5.3</text>
<text text-anchor="start" x="8" y="-151.6" font-family="Times New Roman,serif" font-size="13.00">http://railroady.prestonlee.com</text>
</g>
<!-- Account -->
<g id="node2" class="node"><title>Account</title>
<ellipse fill="none" stroke="black" cx="269.5" cy="-183" rx="42.4939" ry="18"/>
<text text-anchor="middle" x="269.5" y="-179.3" font-family="Times New Roman,serif" font-size="14.00">Account</text>
</g>
<!-- Bookmark -->
<g id="node4" class="node"><title>Bookmark</title>
<ellipse fill="none" stroke="black" cx="76.5" cy="-18" rx="48.9926" ry="18"/>
<text text-anchor="middle" x="76.5" y="-14.3" font-family="Times New Roman,serif" font-size="14.00">Bookmark</text>
</g>
<!-- Account&#45;&gt;Bookmark -->
<g id="edge5" class="edge"><title>Account&#45;&gt;Bookmark</title>
<path fill="none" stroke="#2ea25e" d="M244.926,-161.246C208.507,-130.488 140.481,-73.0354 102.988,-41.3708"/>
<ellipse fill="none" stroke="#2ea25e" cx="248.287" cy="-164.084" rx="4.00002" ry="4.00002"/>
<polygon fill="#2ea25e" stroke="#2ea25e" points="102.672,-41.104 97.9359,-31.2137 98.8523,-37.8778 95.0323,-34.6517 95.0323,-34.6517 95.0323,-34.6517 98.8523,-37.8778 92.1288,-38.0896 102.672,-41.104 102.672,-41.104"/>
</g>
<!-- ChatComment -->
<g id="node6" class="node"><title>ChatComment</title>
<ellipse fill="none" stroke="black" cx="206.5" cy="-18" rx="63.8893" ry="18"/>
<text text-anchor="middle" x="206.5" y="-14.3" font-family="Times New Roman,serif" font-size="14.00">ChatComment</text>
</g>
<!-- Account&#45;&gt;ChatComment -->
<g id="edge4" class="edge"><title>Account&#45;&gt;ChatComment</title>
<path fill="none" stroke="#9d2799" d="M244.262,-161.292C229.906,-147.812 213.281,-128.892 205.5,-108 198.106,-88.148 198.918,-64.0346 201.268,-45.9171"/>
<ellipse fill="none" stroke="#9d2799" cx="247.282" cy="-164.036" rx="4.00002" ry="4.00002"/>
<polygon fill="#9d2799" stroke="#9d2799" points="201.269,-45.9058 207.227,-36.6993 202.024,-40.963 202.778,-36.0203 202.778,-36.0203 202.778,-36.0203 202.024,-40.963 198.33,-35.3413 201.269,-45.9058 201.269,-45.9058"/>
</g>
<!-- Comment -->
<g id="node7" class="node"><title>Comment</title>
<ellipse fill="none" stroke="black" cx="334.5" cy="-18" rx="46.2923" ry="18"/>
<text text-anchor="middle" x="334.5" y="-14.3" font-family="Times New Roman,serif" font-size="14.00">Comment</text>
</g>
<!-- Account&#45;&gt;Comment -->
<g id="edge2" class="edge"><title>Account&#45;&gt;Comment</title>
<path fill="none" stroke="#1abf14" d="M294.655,-161.261C308.979,-147.77 325.602,-128.847 333.5,-108 340.97,-88.2824 340.761,-64.2987 338.937,-46.1988"/>
<ellipse fill="none" stroke="#1abf14" cx="291.645" cy="-164.005" rx="4.00002" ry="4.00002"/>
<polygon fill="#1abf14" stroke="#1abf14" points="338.908,-45.9645 342.15,-35.489 338.296,-41.0021 337.684,-36.0397 337.684,-36.0397 337.684,-36.0397 338.296,-41.0021 333.218,-36.5904 338.908,-45.9645 338.908,-45.9645"/>
</g>
<!-- EntryChat -->
<g id="node8" class="node"><title>EntryChat</title>
<ellipse fill="none" stroke="black" cx="446.5" cy="-18" rx="47.3916" ry="18"/>
<text text-anchor="middle" x="446.5" y="-14.3" font-family="Times New Roman,serif" font-size="14.00">EntryChat</text>
</g>
<!-- Account&#45;&gt;EntryChat -->
<g id="edge3" class="edge"><title>Account&#45;&gt;EntryChat</title>
<path fill="none" stroke="#02c154" d="M292.724,-160.865C308.94,-146.088 331.074,-125.878 350.5,-108 374.752,-85.681 402.334,-60.0883 421.69,-42.0931"/>
<ellipse fill="none" stroke="#02c154" cx="289.557" cy="-163.751" rx="4.00002" ry="4.00002"/>
<polygon fill="#02c154" stroke="#02c154" points="421.87,-41.9263 432.257,-38.4115 425.531,-38.5213 429.193,-35.1162 429.193,-35.1162 429.193,-35.1162 425.531,-38.5213 426.128,-31.821 421.87,-41.9263 421.87,-41.9263"/>
</g>
<!-- Recruitment -->
<g id="node10" class="node"><title>Recruitment</title>
<ellipse fill="none" stroke="black" cx="269.5" cy="-90" rx="54.6905" ry="18"/>
<text text-anchor="middle" x="269.5" y="-86.3" font-family="Times New Roman,serif" font-size="14.00">Recruitment</text>
</g>
<!-- Account&#45;&gt;Recruitment -->
<g id="edge1" class="edge"><title>Account&#45;&gt;Recruitment</title>
<path fill="none" stroke="#832561" d="M269.5,-156.729C269.5,-144.725 269.5,-130.362 269.5,-118.129"/>
<ellipse fill="none" stroke="#832561" cx="269.5" cy="-160.884" rx="4" ry="4"/>
<polygon fill="#832561" stroke="#832561" points="269.5,-118.04 274,-108.04 269.5,-113.04 269.5,-108.04 269.5,-108.04 269.5,-108.04 269.5,-113.04 265,-108.04 269.5,-118.04 269.5,-118.04"/>
</g>
<!-- ApplicationRecord -->
<g id="node3" class="node"><title>ApplicationRecord</title>
<ellipse fill="none" stroke="black" cx="409.5" cy="-183" rx="79.8859" ry="18"/>
<text text-anchor="middle" x="409.5" y="-179.3" font-family="Times New Roman,serif" font-size="14.00">ApplicationRecord</text>
</g>
<!-- Chat -->
<g id="node5" class="node"><title>Chat</title>
<ellipse fill="none" stroke="black" cx="535.5" cy="-183" rx="27.8951" ry="18"/>
<text text-anchor="middle" x="535.5" y="-179.3" font-family="Times New Roman,serif" font-size="14.00">Chat</text>
</g>
<!-- Inputtag -->
<g id="node9" class="node"><title>Inputtag</title>
<polygon fill="none" stroke="black" points="643.5,-201 581.5,-201 581.5,-165 643.5,-165 643.5,-201"/>
<text text-anchor="middle" x="612.5" y="-179.3" font-family="Times New Roman,serif" font-size="14.00">Inputtag</text>
</g>
<!-- Recruitment&#45;&gt;Bookmark -->
<g id="edge9" class="edge"><title>Recruitment&#45;&gt;Bookmark</title>
<path fill="none" stroke="#f4fa49" d="M226.378,-73.3598C194.533,-61.81 151.375,-46.1566 119.548,-34.6132"/>
<ellipse fill="none" stroke="#f4fa49" cx="230.341" cy="-74.797" rx="4.00001" ry="4.00001"/>
<polygon fill="#f4fa49" stroke="#f4fa49" points="119.46,-34.5815 111.594,-26.9415 114.76,-32.8767 110.059,-31.1718 110.059,-31.1718 110.059,-31.1718 114.76,-32.8767 108.525,-35.4022 119.46,-34.5815 119.46,-34.5815"/>
</g>
<!-- Recruitment&#45;&gt;ChatComment -->
<g id="edge8" class="edge"><title>Recruitment&#45;&gt;ChatComment</title>
<path fill="none" stroke="#48d3ad" d="M248.974,-66.1935C242.469,-58.9654 235.25,-50.9443 228.637,-43.5962"/>
<ellipse fill="none" stroke="#48d3ad" cx="251.894" cy="-69.4378" rx="4.00002" ry="4.00002"/>
<polygon fill="#48d3ad" stroke="#48d3ad" points="228.45,-43.3892 225.105,-32.9459 225.105,-39.6727 221.761,-35.9562 221.761,-35.9562 221.761,-35.9562 225.105,-39.6727 218.416,-38.9666 228.45,-43.3892 228.45,-43.3892"/>
</g>
<!-- Recruitment&#45;&gt;Comment -->
<g id="edge6" class="edge"><title>Recruitment&#45;&gt;Comment</title>
<path fill="none" stroke="#72a311" d="M290.501,-66.3836C297.363,-58.9937 305.01,-50.7582 311.979,-43.2529"/>
<ellipse fill="none" stroke="#72a311" cx="287.626" cy="-69.4798" rx="4.00002" ry="4.00002"/>
<polygon fill="#72a311" stroke="#72a311" points="312.402,-42.7979 322.504,-38.532 315.804,-39.1339 319.206,-35.4699 319.206,-35.4699 319.206,-35.4699 315.804,-39.1339 315.909,-32.4079 312.402,-42.7979 312.402,-42.7979"/>
</g>
<!-- Recruitment&#45;&gt;EntryChat -->
<g id="edge7" class="edge"><title>Recruitment&#45;&gt;EntryChat</title>
<path fill="none" stroke="#3609e4" d="M311.006,-72.585C339.355,-61.3738 376.764,-46.5792 405.091,-35.3763"/>
<ellipse fill="none" stroke="#3609e4" cx="306.929" cy="-74.1977" rx="4.00001" ry="4.00001"/>
<polygon fill="#3609e4" stroke="#3609e4" points="405.403,-35.2529 416.358,-35.7599 410.053,-33.4141 414.703,-31.5752 414.703,-31.5752 414.703,-31.5752 410.053,-33.4141 413.048,-27.3906 405.403,-35.2529 405.403,-35.2529"/>
</g>
<!-- Tag -->
<g id="node11" class="node"><title>Tag</title>
<ellipse fill="none" stroke="black" cx="688.5" cy="-183" rx="27" ry="18"/>
<text text-anchor="middle" x="688.5" y="-179.3" font-family="Times New Roman,serif" font-size="14.00">Tag</text>
</g>
<!-- Taghistory -->
<g id="node12" class="node"><title>Taghistory</title>
<ellipse fill="none" stroke="black" cx="783.5" cy="-183" rx="50.0912" ry="18"/>
<text text-anchor="middle" x="783.5" y="-179.3" font-family="Times New Roman,serif" font-size="14.00">Taghistory</text>
</g>
<!-- Taghistoryid -->
<g id="node13" class="node"><title>Taghistoryid</title>
<polygon fill="none" stroke="black" points="939,-201 852,-201 852,-165 939,-165 939,-201"/>
<text text-anchor="middle" x="895.5" y="-179.3" font-family="Times New Roman,serif" font-size="14.00">Taghistoryid</text>
</g>
<!-- Tagmap -->
<g id="node14" class="node"><title>Tagmap</title>
<ellipse fill="none" stroke="black" cx="997.5" cy="-183" rx="40.0939" ry="18"/>
<text text-anchor="middle" x="997.5" y="-179.3" font-family="Times New Roman,serif" font-size="14.00">Tagmap</text>
</g>
<!-- Univinfo -->
<g id="node15" class="node"><title>Univinfo</title>
<ellipse fill="none" stroke="black" cx="1098.5" cy="-183" rx="42.4939" ry="18"/>
<text text-anchor="middle" x="1098.5" y="-179.3" font-family="Times New Roman,serif" font-size="14.00">Univinfo</text>
</g>
</g>
</svg>
