<?xml version="1.0" encoding="UTF-8" standalone="no"?>
<!DOCTYPE svg PUBLIC "-//W3C//DTD SVG 1.1//EN"
 "http://www.w3.org/Graphics/SVG/1.1/DTD/svg11.dtd">
<!-- Generated by graphviz version 2.38.0 (20140413.2041)
 -->
<!-- Title: models_diagram Pages: 1 -->
<svg width="1388pt" height="896pt"
 viewBox="0.00 0.00 1387.50 896.00" xmlns="http://www.w3.org/2000/svg" xmlns:xlink="http://www.w3.org/1999/xlink">
<g id="graph0" class="graph" transform="scale(1 1) rotate(0) translate(4 892)">
<title>models_diagram</title>
<polygon fill="none" stroke="none" points="-4,4 -4,-892 1383.5,-892 1383.5,4 -4,4"/>
<!-- _diagram_info -->
<g id="node1" class="node"><title>_diagram_info</title>
<text text-anchor="start" x="34" y="-716.6" font-family="Times New Roman,serif" font-size="13.00">Models diagram</text>
<text text-anchor="start" x="34" y="-702.6" font-family="Times New Roman,serif" font-size="13.00">Date: Dec 18 2018 &#45; 17:08</text>
<text text-anchor="start" x="34" y="-688.6" font-family="Times New Roman,serif" font-size="13.00">Migration version: 20181217023714</text>
<text text-anchor="start" x="34" y="-674.6" font-family="Times New Roman,serif" font-size="13.00">Generated by RailRoady 1.5.3</text>
<text text-anchor="start" x="34" y="-660.6" font-family="Times New Roman,serif" font-size="13.00">http://railroady.prestonlee.com</text>
</g>
<!-- Account -->
<g id="node2" class="node"><title>Account</title>
<path fill="none" stroke="black" d="M265,-496.5C265,-496.5 462,-496.5 462,-496.5 468,-496.5 474,-502.5 474,-508.5 474,-508.5 474,-875.5 474,-875.5 474,-881.5 468,-887.5 462,-887.5 462,-887.5 265,-887.5 265,-887.5 259,-887.5 253,-881.5 253,-875.5 253,-875.5 253,-508.5 253,-508.5 253,-502.5 259,-496.5 265,-496.5"/>
<text text-anchor="middle" x="363.5" y="-872.3" font-family="Times New Roman,serif" font-size="14.00">Account</text>
<polyline fill="none" stroke="black" points="253,-864.5 474,-864.5 "/>
<text text-anchor="start" x="261" y="-849.3" font-family="Times New Roman,serif" font-size="14.00">id :bigint(20)</text>
<text text-anchor="start" x="261" y="-834.3" font-family="Times New Roman,serif" font-size="14.00">email :varchar(255)</text>
<text text-anchor="start" x="261" y="-819.3" font-family="Times New Roman,serif" font-size="14.00">encrypted_password :varchar(255)</text>
<text text-anchor="start" x="261" y="-804.3" font-family="Times New Roman,serif" font-size="14.00">reset_password_token :varchar(255)</text>
<text text-anchor="start" x="261" y="-789.3" font-family="Times New Roman,serif" font-size="14.00">reset_password_sent_at :datetime</text>
<text text-anchor="start" x="261" y="-774.3" font-family="Times New Roman,serif" font-size="14.00">remember_created_at :datetime</text>
<text text-anchor="start" x="261" y="-759.3" font-family="Times New Roman,serif" font-size="14.00">sign_in_count :int(11)</text>
<text text-anchor="start" x="261" y="-744.3" font-family="Times New Roman,serif" font-size="14.00">current_sign_in_at :datetime</text>
<text text-anchor="start" x="261" y="-729.3" font-family="Times New Roman,serif" font-size="14.00">last_sign_in_at :datetime</text>
<text text-anchor="start" x="261" y="-714.3" font-family="Times New Roman,serif" font-size="14.00">current_sign_in_ip :varchar(255)</text>
<text text-anchor="start" x="261" y="-699.3" font-family="Times New Roman,serif" font-size="14.00">last_sign_in_ip :varchar(255)</text>
<text text-anchor="start" x="261" y="-684.3" font-family="Times New Roman,serif" font-size="14.00">confirmation_token :varchar(255)</text>
<text text-anchor="start" x="261" y="-669.3" font-family="Times New Roman,serif" font-size="14.00">confirmed_at :datetime</text>
<text text-anchor="start" x="261" y="-654.3" font-family="Times New Roman,serif" font-size="14.00">confirmation_sent_at :datetime</text>
<text text-anchor="start" x="261" y="-639.3" font-family="Times New Roman,serif" font-size="14.00">unconfirmed_email :varchar(255)</text>
<text text-anchor="start" x="261" y="-624.3" font-family="Times New Roman,serif" font-size="14.00">created_at :datetime</text>
<text text-anchor="start" x="261" y="-609.3" font-family="Times New Roman,serif" font-size="14.00">updated_at :datetime</text>
<text text-anchor="start" x="261" y="-594.3" font-family="Times New Roman,serif" font-size="14.00">acc_id :varchar(20)</text>
<text text-anchor="start" x="261" y="-579.3" font-family="Times New Roman,serif" font-size="14.00">name :varchar(20)</text>
<text text-anchor="start" x="261" y="-564.3" font-family="Times New Roman,serif" font-size="14.00">grade :varchar(5)</text>
<text text-anchor="start" x="261" y="-549.3" font-family="Times New Roman,serif" font-size="14.00">university :varchar(20)</text>
<text text-anchor="start" x="261" y="-534.3" font-family="Times New Roman,serif" font-size="14.00">faculty :varchar(20)</text>
<text text-anchor="start" x="261" y="-519.3" font-family="Times New Roman,serif" font-size="14.00">department :varchar(20)</text>
<text text-anchor="start" x="261" y="-504.3" font-family="Times New Roman,serif" font-size="14.00">introduction :varchar(1000)</text>
</g>
<!-- Bookmark -->
<g id="node4" class="node"><title>Bookmark</title>
<path fill="none" stroke="black" d="M187,-38C187,-38 320,-38 320,-38 326,-38 332,-44 332,-50 332,-50 332,-132 332,-132 332,-138 326,-144 320,-144 320,-144 187,-144 187,-144 181,-144 175,-138 175,-132 175,-132 175,-50 175,-50 175,-44 181,-38 187,-38"/>
<text text-anchor="middle" x="253.5" y="-128.8" font-family="Times New Roman,serif" font-size="14.00">Bookmark</text>
<polyline fill="none" stroke="black" points="175,-121 332,-121 "/>
<text text-anchor="start" x="183" y="-105.8" font-family="Times New Roman,serif" font-size="14.00">account_id :bigint(20)</text>
<text text-anchor="start" x="183" y="-90.8" font-family="Times New Roman,serif" font-size="14.00">recruitment_id :bigint(20)</text>
<text text-anchor="start" x="183" y="-75.8" font-family="Times New Roman,serif" font-size="14.00">created_at :datetime</text>
<text text-anchor="start" x="183" y="-60.8" font-family="Times New Roman,serif" font-size="14.00">updated_at :datetime</text>
<text text-anchor="start" x="183" y="-45.8" font-family="Times New Roman,serif" font-size="14.00">id :bigint(20)</text>
</g>
<!-- Account&#45;&gt;Bookmark -->
<g id="edge5" class="edge"><title>Account&#45;&gt;Bookmark</title>
<path fill="none" stroke="#14e981" d="M279.608,-488.681C276.948,-479.065 274.553,-469.473 272.5,-460 249.626,-354.456 248.657,-228.09 250.65,-154.256"/>
<ellipse fill="none" stroke="#14e981" cx="280.705" cy="-492.548" rx="4.00001" ry="4.00001"/>
<polygon fill="#14e981" stroke="#14e981" points="250.652,-154.19 255.447,-144.328 250.801,-149.192 250.949,-144.194 250.949,-144.194 250.949,-144.194 250.801,-149.192 246.451,-144.06 250.652,-154.19 250.652,-154.19"/>
</g>
<!-- ChatComment -->
<g id="node5" class="node"><title>ChatComment</title>
<path fill="none" stroke="black" d="M362,-0.5C362,-0.5 495,-0.5 495,-0.5 501,-0.5 507,-6.5 507,-12.5 507,-12.5 507,-169.5 507,-169.5 507,-175.5 501,-181.5 495,-181.5 495,-181.5 362,-181.5 362,-181.5 356,-181.5 350,-175.5 350,-169.5 350,-169.5 350,-12.5 350,-12.5 350,-6.5 356,-0.5 362,-0.5"/>
<text text-anchor="middle" x="428.5" y="-166.3" font-family="Times New Roman,serif" font-size="14.00">ChatComment</text>
<polyline fill="none" stroke="black" points="350,-158.5 507,-158.5 "/>
<text text-anchor="start" x="358" y="-143.3" font-family="Times New Roman,serif" font-size="14.00">id :bigint(20)</text>
<text text-anchor="start" x="358" y="-128.3" font-family="Times New Roman,serif" font-size="14.00">chat_id :int(11)</text>
<text text-anchor="start" x="358" y="-113.3" font-family="Times New Roman,serif" font-size="14.00">acc_id :varchar(255)</text>
<text text-anchor="start" x="358" y="-98.3" font-family="Times New Roman,serif" font-size="14.00">time :date</text>
<text text-anchor="start" x="358" y="-83.3" font-family="Times New Roman,serif" font-size="14.00">comment :varchar(255)</text>
<text text-anchor="start" x="358" y="-68.3" font-family="Times New Roman,serif" font-size="14.00">file_id :int(11)</text>
<text text-anchor="start" x="358" y="-53.3" font-family="Times New Roman,serif" font-size="14.00">account_id :bigint(20)</text>
<text text-anchor="start" x="358" y="-38.3" font-family="Times New Roman,serif" font-size="14.00">recruitment_id :bigint(20)</text>
<text text-anchor="start" x="358" y="-23.3" font-family="Times New Roman,serif" font-size="14.00">created_at :datetime</text>
<text text-anchor="start" x="358" y="-8.3" font-family="Times New Roman,serif" font-size="14.00">updated_at :datetime</text>
</g>
<!-- Account&#45;&gt;ChatComment -->
<g id="edge4" class="edge"><title>Account&#45;&gt;ChatComment</title>
<path fill="none" stroke="#22ccbd" d="M448.142,-488.267C450.581,-478.798 452.725,-469.346 454.5,-460 474.563,-354.332 465.425,-324.999 454.5,-218 453.626,-209.443 452.427,-200.61 451.02,-191.777"/>
<ellipse fill="none" stroke="#22ccbd" cx="447.055" cy="-492.358" rx="4.00001" ry="4.00001"/>
<polygon fill="#22ccbd" stroke="#22ccbd" points="451.004,-191.681 453.788,-181.074 450.177,-186.75 449.35,-181.819 449.35,-181.819 449.35,-181.819 450.177,-186.75 444.912,-182.563 451.004,-191.681 451.004,-191.681"/>
</g>
<!-- Comment -->
<g id="node6" class="node"><title>Comment</title>
<path fill="none" stroke="black" d="M537,-23C537,-23 670,-23 670,-23 676,-23 682,-29 682,-35 682,-35 682,-147 682,-147 682,-153 676,-159 670,-159 670,-159 537,-159 537,-159 531,-159 525,-153 525,-147 525,-147 525,-35 525,-35 525,-29 531,-23 537,-23"/>
<text text-anchor="middle" x="603.5" y="-143.8" font-family="Times New Roman,serif" font-size="14.00">Comment</text>
<polyline fill="none" stroke="black" points="525,-136 682,-136 "/>
<text text-anchor="start" x="533" y="-120.8" font-family="Times New Roman,serif" font-size="14.00">recruitment_id :bigint(20)</text>
<text text-anchor="start" x="533" y="-105.8" font-family="Times New Roman,serif" font-size="14.00">account_id :bigint(20)</text>
<text text-anchor="start" x="533" y="-90.8" font-family="Times New Roman,serif" font-size="14.00">message :varchar(1000)</text>
<text text-anchor="start" x="533" y="-75.8" font-family="Times New Roman,serif" font-size="14.00">file_id :int(11)</text>
<text text-anchor="start" x="533" y="-60.8" font-family="Times New Roman,serif" font-size="14.00">created_at :datetime</text>
<text text-anchor="start" x="533" y="-45.8" font-family="Times New Roman,serif" font-size="14.00">updated_at :datetime</text>
<text text-anchor="start" x="533" y="-30.8" font-family="Times New Roman,serif" font-size="14.00">id :bigint(20)</text>
</g>
<!-- Account&#45;&gt;Comment -->
<g id="edge2" class="edge"><title>Account&#45;&gt;Comment</title>
<path fill="none" stroke="#fdeb82" d="M461.236,-488.86C465.468,-479.142 469.578,-469.486 473.5,-460 514.377,-361.119 554.288,-244.205 578.872,-169.129"/>
<ellipse fill="none" stroke="#fdeb82" cx="459.582" cy="-492.638" rx="4.00002" ry="4.00002"/>
<polygon fill="#fdeb82" stroke="#fdeb82" points="578.986,-168.781 586.367,-160.671 580.538,-164.028 582.09,-159.275 582.09,-159.275 582.09,-159.275 580.538,-164.028 577.812,-157.878 578.986,-168.781 578.986,-168.781"/>
</g>
<!-- EntryChat -->
<g id="node7" class="node"><title>EntryChat</title>
<path fill="none" stroke="black" d="M12,-23C12,-23 145,-23 145,-23 151,-23 157,-29 157,-35 157,-35 157,-147 157,-147 157,-153 151,-159 145,-159 145,-159 12,-159 12,-159 6,-159 0,-153 0,-147 0,-147 0,-35 0,-35 0,-29 6,-23 12,-23"/>
<text text-anchor="middle" x="78.5" y="-143.8" font-family="Times New Roman,serif" font-size="14.00">EntryChat</text>
<polyline fill="none" stroke="black" points="0,-136 157,-136 "/>
<text text-anchor="start" x="8" y="-120.8" font-family="Times New Roman,serif" font-size="14.00">chat_id :int(11)</text>
<text text-anchor="start" x="8" y="-105.8" font-family="Times New Roman,serif" font-size="14.00">acc_id :varchar(255)</text>
<text text-anchor="start" x="8" y="-90.8" font-family="Times New Roman,serif" font-size="14.00">account_id :bigint(20)</text>
<text text-anchor="start" x="8" y="-75.8" font-family="Times New Roman,serif" font-size="14.00">recruitment_id :bigint(20)</text>
<text text-anchor="start" x="8" y="-60.8" font-family="Times New Roman,serif" font-size="14.00">created_at :datetime</text>
<text text-anchor="start" x="8" y="-45.8" font-family="Times New Roman,serif" font-size="14.00">updated_at :datetime</text>
<text text-anchor="start" x="8" y="-30.8" font-family="Times New Roman,serif" font-size="14.00">id :bigint(20)</text>
</g>
<!-- Account&#45;&gt;EntryChat -->
<g id="edge3" class="edge"><title>Account&#45;&gt;EntryChat</title>
<path fill="none" stroke="#c9f8cc" d="M260.496,-488.798C255.73,-479.079 251.044,-469.442 246.5,-460 198.381,-360.016 145.668,-243.278 112.358,-168.549"/>
<ellipse fill="none" stroke="#c9f8cc" cx="262.39" cy="-492.655" rx="4.00002" ry="4.00002"/>
<polygon fill="#c9f8cc" stroke="#c9f8cc" points="112.261,-168.33 112.304,-157.364 110.227,-163.763 108.193,-159.195 108.193,-159.195 108.193,-159.195 110.227,-163.763 104.082,-161.026 112.261,-168.33 112.261,-168.33"/>
</g>
<!-- Recruitment -->
<g id="node10" class="node"><title>Recruitment</title>
<path fill="none" stroke="black" d="M294,-218.5C294,-218.5 433,-218.5 433,-218.5 439,-218.5 445,-224.5 445,-230.5 445,-230.5 445,-447.5 445,-447.5 445,-453.5 439,-459.5 433,-459.5 433,-459.5 294,-459.5 294,-459.5 288,-459.5 282,-453.5 282,-447.5 282,-447.5 282,-230.5 282,-230.5 282,-224.5 288,-218.5 294,-218.5"/>
<text text-anchor="middle" x="363.5" y="-444.3" font-family="Times New Roman,serif" font-size="14.00">Recruitment</text>
<polyline fill="none" stroke="black" points="282,-436.5 445,-436.5 "/>
<text text-anchor="start" x="290" y="-421.3" font-family="Times New Roman,serif" font-size="14.00">id :bigint(20)</text>
<text text-anchor="start" x="290" y="-406.3" font-family="Times New Roman,serif" font-size="14.00">acc_id :varchar(20)</text>
<text text-anchor="start" x="290" y="-391.3" font-family="Times New Roman,serif" font-size="14.00">re_id :varchar(255)</text>
<text text-anchor="start" x="290" y="-376.3" font-family="Times New Roman,serif" font-size="14.00">chat_id :varchar(255)</text>
<text text-anchor="start" x="290" y="-361.3" font-family="Times New Roman,serif" font-size="14.00">resolved :varchar(255)</text>
<text text-anchor="start" x="290" y="-346.3" font-family="Times New Roman,serif" font-size="14.00">title :varchar(100)</text>
<text text-anchor="start" x="290" y="-331.3" font-family="Times New Roman,serif" font-size="14.00">detail :varchar(1000)</text>
<text text-anchor="start" x="290" y="-316.3" font-family="Times New Roman,serif" font-size="14.00">ans_com_id :varchar(255)</text>
<text text-anchor="start" x="290" y="-301.3" font-family="Times New Roman,serif" font-size="14.00">answer :varchar(1000)</text>
<text text-anchor="start" x="290" y="-286.3" font-family="Times New Roman,serif" font-size="14.00">file_id :varchar(255)</text>
<text text-anchor="start" x="290" y="-271.3" font-family="Times New Roman,serif" font-size="14.00">chat :varchar(255)</text>
<text text-anchor="start" x="290" y="-256.3" font-family="Times New Roman,serif" font-size="14.00">account_id :bigint(20)</text>
<text text-anchor="start" x="290" y="-241.3" font-family="Times New Roman,serif" font-size="14.00">created_at :datetime</text>
<text text-anchor="start" x="290" y="-226.3" font-family="Times New Roman,serif" font-size="14.00">updated_at :datetime</text>
</g>
<!-- Account&#45;&gt;Recruitment -->
<g id="edge1" class="edge"><title>Account&#45;&gt;Recruitment</title>
<path fill="none" stroke="#7b987d" d="M363.5,-488.188C363.5,-482.054 363.5,-475.967 363.5,-469.956"/>
<ellipse fill="none" stroke="#7b987d" cx="363.5" cy="-492.253" rx="4" ry="4"/>
<polygon fill="#7b987d" stroke="#7b987d" points="363.5,-469.917 368,-459.917 363.5,-464.917 363.5,-459.917 363.5,-459.917 363.5,-459.917 363.5,-464.917 359,-459.917 363.5,-469.917 363.5,-469.917"/>
</g>
<!-- ApplicationRecord -->
<g id="node3" class="node"><title>ApplicationRecord</title>
<ellipse fill="none" stroke="black" cx="571.5" cy="-692" rx="79.8859" ry="18"/>
<text text-anchor="middle" x="571.5" y="-688.3" font-family="Times New Roman,serif" font-size="14.00">ApplicationRecord</text>
</g>
<!-- Inputtag -->
<g id="node8" class="node"><title>Inputtag</title>
<polygon fill="none" stroke="black" points="669.5,-669 669.5,-715 731.5,-715 731.5,-669 669.5,-669"/>
<text text-anchor="middle" x="700.5" y="-699.8" font-family="Times New Roman,serif" font-size="14.00">Inputtag</text>
<polyline fill="none" stroke="black" points="669.5,-692 731.5,-692 "/>
<text text-anchor="middle" x="700.5" y="-676.8" font-family="Times New Roman,serif" font-size="14.00"> </text>
</g>
<!-- Picture -->
<g id="node9" class="node"><title>Picture</title>
<path fill="none" stroke="black" d="M762,-616.5C762,-616.5 945,-616.5 945,-616.5 951,-616.5 957,-622.5 957,-628.5 957,-628.5 957,-755.5 957,-755.5 957,-761.5 951,-767.5 945,-767.5 945,-767.5 762,-767.5 762,-767.5 756,-767.5 750,-761.5 750,-755.5 750,-755.5 750,-628.5 750,-628.5 750,-622.5 756,-616.5 762,-616.5"/>
<text text-anchor="middle" x="853.5" y="-752.3" font-family="Times New Roman,serif" font-size="14.00">Picture</text>
<polyline fill="none" stroke="black" points="750,-744.5 957,-744.5 "/>
<text text-anchor="start" x="758" y="-729.3" font-family="Times New Roman,serif" font-size="14.00">name :varchar(255)</text>
<text text-anchor="start" x="758" y="-714.3" font-family="Times New Roman,serif" font-size="14.00">created_at :datetime</text>
<text text-anchor="start" x="758" y="-699.3" font-family="Times New Roman,serif" font-size="14.00">updated_at :datetime</text>
<text text-anchor="start" x="758" y="-684.3" font-family="Times New Roman,serif" font-size="14.00">photo_file_name :varchar(255)</text>
<text text-anchor="start" x="758" y="-669.3" font-family="Times New Roman,serif" font-size="14.00">photo_content_type :varchar(255)</text>
<text text-anchor="start" x="758" y="-654.3" font-family="Times New Roman,serif" font-size="14.00">photo_file_size :bigint(20)</text>
<text text-anchor="start" x="758" y="-639.3" font-family="Times New Roman,serif" font-size="14.00">photo_updated_at :datetime</text>
<text text-anchor="start" x="758" y="-624.3" font-family="Times New Roman,serif" font-size="14.00">id :bigint(20)</text>
</g>
<!-- Recruitment&#45;&gt;Bookmark -->
<g id="edge10" class="edge"><title>Recruitment&#45;&gt;Bookmark</title>
<path fill="none" stroke="#7f99c8" d="M306.676,-210.922C297.779,-191.024 288.945,-171.269 281.108,-153.742"/>
<ellipse fill="none" stroke="#7f99c8" cx="308.317" cy="-214.591" rx="4.00002" ry="4.00002"/>
<polygon fill="#7f99c8" stroke="#7f99c8" points="280.945,-153.376 280.971,-142.41 278.904,-148.812 276.863,-144.247 276.863,-144.247 276.863,-144.247 278.904,-148.812 272.755,-146.084 280.945,-153.376 280.945,-153.376"/>
</g>
<!-- Recruitment&#45;&gt;ChatComment -->
<g id="edge8" class="edge"><title>Recruitment&#45;&gt;ChatComment</title>
<path fill="none" stroke="#4823b0" d="M397.207,-210.432C398.895,-204.043 400.579,-197.671 402.24,-191.384"/>
<ellipse fill="none" stroke="#4823b0" cx="396.165" cy="-214.376" rx="4.00001" ry="4.00001"/>
<polygon fill="#4823b0" stroke="#4823b0" points="402.274,-191.254 409.18,-182.735 403.552,-186.42 404.829,-181.586 404.829,-181.586 404.829,-181.586 403.552,-186.42 400.478,-180.436 402.274,-191.254 402.274,-191.254"/>
</g>
<!-- Recruitment&#45;&gt;Comment -->
<g id="edge6" class="edge"><title>Recruitment&#45;&gt;Comment</title>
<path fill="none" stroke="#cded4d" d="M451.104,-248.901C472.526,-227.052 495.365,-203.706 516.5,-182 521.287,-177.083 526.218,-172.01 531.182,-166.894"/>
<ellipse fill="none" stroke="#cded4d" cx="448.198" cy="-251.864" rx="4.00002" ry="4.00002"/>
<polygon fill="#cded4d" stroke="#cded4d" points="531.507,-166.559 541.699,-162.513 534.988,-162.97 538.469,-159.38 538.469,-159.38 538.469,-159.38 534.988,-162.97 535.238,-156.248 531.507,-166.559 531.507,-166.559"/>
</g>
<!-- Recruitment&#45;&gt;EntryChat -->
<g id="edge7" class="edge"><title>Recruitment&#45;&gt;EntryChat</title>
<path fill="none" stroke="#ada33d" d="M275.051,-272.411C240.065,-245.422 200.041,-213.212 165.5,-182 160.068,-177.092 154.56,-171.917 149.088,-166.63"/>
<ellipse fill="none" stroke="#ada33d" cx="278.352" cy="-274.949" rx="4.00002" ry="4.00002"/>
<polygon fill="#ada33d" stroke="#ada33d" points="148.81,-166.358 144.807,-156.149 145.236,-162.863 141.661,-159.367 141.661,-159.367 141.661,-159.367 145.236,-162.863 138.515,-162.584 148.81,-166.358 148.81,-166.358"/>
</g>
<!-- Tagmap -->
<g id="node14" class="node"><title>Tagmap</title>
<path fill="none" stroke="black" d="M712,-38C712,-38 845,-38 845,-38 851,-38 857,-44 857,-50 857,-50 857,-132 857,-132 857,-138 851,-144 845,-144 845,-144 712,-144 712,-144 706,-144 700,-138 700,-132 700,-132 700,-50 700,-50 700,-44 706,-38 712,-38"/>
<text text-anchor="middle" x="778.5" y="-128.8" font-family="Times New Roman,serif" font-size="14.00">Tagmap</text>
<polyline fill="none" stroke="black" points="700,-121 857,-121 "/>
<text text-anchor="start" x="708" y="-105.8" font-family="Times New Roman,serif" font-size="14.00">recruitment_id :bigint(20)</text>
<text text-anchor="start" x="708" y="-90.8" font-family="Times New Roman,serif" font-size="14.00">tag_id :bigint(20)</text>
<text text-anchor="start" x="708" y="-75.8" font-family="Times New Roman,serif" font-size="14.00">created_at :datetime</text>
<text text-anchor="start" x="708" y="-60.8" font-family="Times New Roman,serif" font-size="14.00">updated_at :datetime</text>
<text text-anchor="start" x="708" y="-45.8" font-family="Times New Roman,serif" font-size="14.00">id :bigint(20)</text>
</g>
<!-- Recruitment&#45;&gt;Tagmap -->
<g id="edge9" class="edge"><title>Recruitment&#45;&gt;Tagmap</title>
<path fill="none" stroke="#2f7bc8" d="M452.922,-305.631C521.681,-278.412 617.173,-235.417 691.5,-182 703.805,-173.157 715.861,-162.454 726.891,-151.561"/>
<ellipse fill="none" stroke="#2f7bc8" cx="448.817" cy="-307.244" rx="4.00001" ry="4.00001"/>
<polygon fill="#2f7bc8" stroke="#2f7bc8" points="726.95,-151.502 737.182,-147.558 730.466,-147.947 733.983,-144.393 733.983,-144.393 733.983,-144.393 730.466,-147.947 730.784,-141.228 726.95,-151.502 726.95,-151.502"/>
</g>
<!-- Tag -->
<g id="node11" class="node"><title>Tag</title>
<path fill="none" stroke="black" d="M720.5,-278.5C720.5,-278.5 836.5,-278.5 836.5,-278.5 842.5,-278.5 848.5,-284.5 848.5,-290.5 848.5,-290.5 848.5,-387.5 848.5,-387.5 848.5,-393.5 842.5,-399.5 836.5,-399.5 836.5,-399.5 720.5,-399.5 720.5,-399.5 714.5,-399.5 708.5,-393.5 708.5,-387.5 708.5,-387.5 708.5,-290.5 708.5,-290.5 708.5,-284.5 714.5,-278.5 720.5,-278.5"/>
<text text-anchor="middle" x="778.5" y="-384.3" font-family="Times New Roman,serif" font-size="14.00">Tag</text>
<polyline fill="none" stroke="black" points="708.5,-376.5 848.5,-376.5 "/>
<text text-anchor="start" x="716.5" y="-361.3" font-family="Times New Roman,serif" font-size="14.00">tag_type :tinyint(1)</text>
<text text-anchor="start" x="716.5" y="-346.3" font-family="Times New Roman,serif" font-size="14.00">tag_name :varchar(30)</text>
<text text-anchor="start" x="716.5" y="-331.3" font-family="Times New Roman,serif" font-size="14.00">com_count :int(11)</text>
<text text-anchor="start" x="716.5" y="-316.3" font-family="Times New Roman,serif" font-size="14.00">created_at :datetime</text>
<text text-anchor="start" x="716.5" y="-301.3" font-family="Times New Roman,serif" font-size="14.00">updated_at :datetime</text>
<text text-anchor="start" x="716.5" y="-286.3" font-family="Times New Roman,serif" font-size="14.00">id :bigint(20)</text>
</g>
<!-- Tag&#45;&gt;Tagmap -->
<g id="edge11" class="edge"><title>Tag&#45;&gt;Tagmap</title>
<path fill="none" stroke="#7fde87" d="M778.5,-270.129C778.5,-233.976 778.5,-189.81 778.5,-154.502"/>
<ellipse fill="none" stroke="#7fde87" cx="778.5" cy="-274.45" rx="4" ry="4"/>
<polygon fill="#7fde87" stroke="#7fde87" points="778.5,-154.321 783,-144.321 778.5,-149.321 778.5,-144.321 778.5,-144.321 778.5,-144.321 778.5,-149.321 774,-144.321 778.5,-154.321 778.5,-154.321"/>
</g>
<!-- Taghistory -->
<g id="node12" class="node"><title>Taghistory</title>
<path fill="none" stroke="black" d="M987,-541.5C987,-541.5 1112,-541.5 1112,-541.5 1118,-541.5 1124,-547.5 1124,-553.5 1124,-553.5 1124,-830.5 1124,-830.5 1124,-836.5 1118,-842.5 1112,-842.5 1112,-842.5 987,-842.5 987,-842.5 981,-842.5 975,-836.5 975,-830.5 975,-830.5 975,-553.5 975,-553.5 975,-547.5 981,-541.5 987,-541.5"/>
<text text-anchor="middle" x="1049.5" y="-827.3" font-family="Times New Roman,serif" font-size="14.00">Taghistory</text>
<polyline fill="none" stroke="black" points="975,-819.5 1124,-819.5 "/>
<text text-anchor="start" x="983" y="-804.3" font-family="Times New Roman,serif" font-size="14.00">id :bigint(20)</text>
<text text-anchor="start" x="983" y="-789.3" font-family="Times New Roman,serif" font-size="14.00">acc_id :varchar(255)</text>
<text text-anchor="start" x="983" y="-774.3" font-family="Times New Roman,serif" font-size="14.00">univtag :varchar(30)</text>
<text text-anchor="start" x="983" y="-759.3" font-family="Times New Roman,serif" font-size="14.00">faculty :varchar(30)</text>
<text text-anchor="start" x="983" y="-744.3" font-family="Times New Roman,serif" font-size="14.00">department :varchar(30)</text>
<text text-anchor="start" x="983" y="-729.3" font-family="Times New Roman,serif" font-size="14.00">tag1 :varchar(30)</text>
<text text-anchor="start" x="983" y="-714.3" font-family="Times New Roman,serif" font-size="14.00">tag2 :varchar(30)</text>
<text text-anchor="start" x="983" y="-699.3" font-family="Times New Roman,serif" font-size="14.00">tag3 :varchar(30)</text>
<text text-anchor="start" x="983" y="-684.3" font-family="Times New Roman,serif" font-size="14.00">tag4 :varchar(30)</text>
<text text-anchor="start" x="983" y="-669.3" font-family="Times New Roman,serif" font-size="14.00">tag5 :varchar(30)</text>
<text text-anchor="start" x="983" y="-654.3" font-family="Times New Roman,serif" font-size="14.00">tag6 :varchar(30)</text>
<text text-anchor="start" x="983" y="-639.3" font-family="Times New Roman,serif" font-size="14.00">tag7 :varchar(30)</text>
<text text-anchor="start" x="983" y="-624.3" font-family="Times New Roman,serif" font-size="14.00">tag8 :varchar(30)</text>
<text text-anchor="start" x="983" y="-609.3" font-family="Times New Roman,serif" font-size="14.00">tag9 :varchar(30)</text>
<text text-anchor="start" x="983" y="-594.3" font-family="Times New Roman,serif" font-size="14.00">tag10 :varchar(30)</text>
<text text-anchor="start" x="983" y="-579.3" font-family="Times New Roman,serif" font-size="14.00">display :varchar(391)</text>
<text text-anchor="start" x="983" y="-564.3" font-family="Times New Roman,serif" font-size="14.00">created_at :datetime</text>
<text text-anchor="start" x="983" y="-549.3" font-family="Times New Roman,serif" font-size="14.00">updated_at :datetime</text>
</g>
<!-- Taghistoryid -->
<g id="node13" class="node"><title>Taghistoryid</title>
<polygon fill="none" stroke="black" points="1142,-669 1142,-715 1229,-715 1229,-669 1142,-669"/>
<text text-anchor="middle" x="1185.5" y="-699.8" font-family="Times New Roman,serif" font-size="14.00">Taghistoryid</text>
<polyline fill="none" stroke="black" points="1142,-692 1229,-692 "/>
<text text-anchor="middle" x="1185.5" y="-676.8" font-family="Times New Roman,serif" font-size="14.00"> </text>
</g>
<!-- Univinfo -->
<g id="node15" class="node"><title>Univinfo</title>
<path fill="none" stroke="black" d="M1259.5,-624C1259.5,-624 1367.5,-624 1367.5,-624 1373.5,-624 1379.5,-630 1379.5,-636 1379.5,-636 1379.5,-748 1379.5,-748 1379.5,-754 1373.5,-760 1367.5,-760 1367.5,-760 1259.5,-760 1259.5,-760 1253.5,-760 1247.5,-754 1247.5,-748 1247.5,-748 1247.5,-636 1247.5,-636 1247.5,-630 1253.5,-624 1259.5,-624"/>
<text text-anchor="middle" x="1313.5" y="-744.8" font-family="Times New Roman,serif" font-size="14.00">Univinfo</text>
<polyline fill="none" stroke="black" points="1247.5,-737 1379.5,-737 "/>
<text text-anchor="start" x="1255.5" y="-721.8" font-family="Times New Roman,serif" font-size="14.00">p_id :int(11)</text>
<text text-anchor="start" x="1255.5" y="-706.8" font-family="Times New Roman,serif" font-size="14.00">stat :int(11)</text>
<text text-anchor="start" x="1255.5" y="-691.8" font-family="Times New Roman,serif" font-size="14.00">name :varchar(255)</text>
<text text-anchor="start" x="1255.5" y="-676.8" font-family="Times New Roman,serif" font-size="14.00">tag_id :int(11)</text>
<text text-anchor="start" x="1255.5" y="-661.8" font-family="Times New Roman,serif" font-size="14.00">created_at :datetime</text>
<text text-anchor="start" x="1255.5" y="-646.8" font-family="Times New Roman,serif" font-size="14.00">updated_at :datetime</text>
<text text-anchor="start" x="1255.5" y="-631.8" font-family="Times New Roman,serif" font-size="14.00">id :bigint(20)</text>
</g>
</g>
</svg>
