<?xml version="1.0" encoding="UTF-8" standalone="no"?>
<!DOCTYPE svg PUBLIC "-//W3C//DTD SVG 1.1//EN"
 "http://www.w3.org/Graphics/SVG/1.1/DTD/svg11.dtd">
<!-- Generated by graphviz version 2.38.0 (20140413.2041)
 -->
<!-- Title: models_diagram Pages: 1 -->
<svg width="1448pt" height="896pt"
 viewBox="0.00 0.00 1447.50 896.00" xmlns="http://www.w3.org/2000/svg" xmlns:xlink="http://www.w3.org/1999/xlink">
<g id="graph0" class="graph" transform="scale(1 1) rotate(0) translate(4 892)">
<title>models_diagram</title>
<polygon fill="none" stroke="none" points="-4,4 -4,-892 1443.5,-892 1443.5,4 -4,4"/>
<!-- _diagram_info -->
<g id="node1" class="node"><title>_diagram_info</title>
<text text-anchor="start" x="11" y="-716.6" font-family="Times New Roman,serif" font-size="13.00">Models diagram</text>
<text text-anchor="start" x="11" y="-702.6" font-family="Times New Roman,serif" font-size="13.00">Date: Dec 17 2018 &#45; 14:30</text>
<text text-anchor="start" x="11" y="-688.6" font-family="Times New Roman,serif" font-size="13.00">Migration version: 20181217023714</text>
<text text-anchor="start" x="11" y="-674.6" font-family="Times New Roman,serif" font-size="13.00">Generated by RailRoady 1.5.3</text>
<text text-anchor="start" x="11" y="-660.6" font-family="Times New Roman,serif" font-size="13.00">http://railroady.prestonlee.com</text>
</g>
<!-- Account -->
<g id="node2" class="node"><title>Account</title>
<path fill="none" stroke="black" d="M242,-496.5C242,-496.5 439,-496.5 439,-496.5 445,-496.5 451,-502.5 451,-508.5 451,-508.5 451,-875.5 451,-875.5 451,-881.5 445,-887.5 439,-887.5 439,-887.5 242,-887.5 242,-887.5 236,-887.5 230,-881.5 230,-875.5 230,-875.5 230,-508.5 230,-508.5 230,-502.5 236,-496.5 242,-496.5"/>
<text text-anchor="middle" x="340.5" y="-872.3" font-family="Times New Roman,serif" font-size="14.00">Account</text>
<polyline fill="none" stroke="black" points="230,-864.5 451,-864.5 "/>
<text text-anchor="start" x="238" y="-849.3" font-family="Times New Roman,serif" font-size="14.00">id :bigint(20)</text>
<text text-anchor="start" x="238" y="-834.3" font-family="Times New Roman,serif" font-size="14.00">email :varchar(255)</text>
<text text-anchor="start" x="238" y="-819.3" font-family="Times New Roman,serif" font-size="14.00">encrypted_password :varchar(255)</text>
<text text-anchor="start" x="238" y="-804.3" font-family="Times New Roman,serif" font-size="14.00">reset_password_token :varchar(255)</text>
<text text-anchor="start" x="238" y="-789.3" font-family="Times New Roman,serif" font-size="14.00">reset_password_sent_at :datetime</text>
<text text-anchor="start" x="238" y="-774.3" font-family="Times New Roman,serif" font-size="14.00">remember_created_at :datetime</text>
<text text-anchor="start" x="238" y="-759.3" font-family="Times New Roman,serif" font-size="14.00">sign_in_count :int(11)</text>
<text text-anchor="start" x="238" y="-744.3" font-family="Times New Roman,serif" font-size="14.00">current_sign_in_at :datetime</text>
<text text-anchor="start" x="238" y="-729.3" font-family="Times New Roman,serif" font-size="14.00">last_sign_in_at :datetime</text>
<text text-anchor="start" x="238" y="-714.3" font-family="Times New Roman,serif" font-size="14.00">current_sign_in_ip :varchar(255)</text>
<text text-anchor="start" x="238" y="-699.3" font-family="Times New Roman,serif" font-size="14.00">last_sign_in_ip :varchar(255)</text>
<text text-anchor="start" x="238" y="-684.3" font-family="Times New Roman,serif" font-size="14.00">confirmation_token :varchar(255)</text>
<text text-anchor="start" x="238" y="-669.3" font-family="Times New Roman,serif" font-size="14.00">confirmed_at :datetime</text>
<text text-anchor="start" x="238" y="-654.3" font-family="Times New Roman,serif" font-size="14.00">confirmation_sent_at :datetime</text>
<text text-anchor="start" x="238" y="-639.3" font-family="Times New Roman,serif" font-size="14.00">unconfirmed_email :varchar(255)</text>
<text text-anchor="start" x="238" y="-624.3" font-family="Times New Roman,serif" font-size="14.00">created_at :datetime</text>
<text text-anchor="start" x="238" y="-609.3" font-family="Times New Roman,serif" font-size="14.00">updated_at :datetime</text>
<text text-anchor="start" x="238" y="-594.3" font-family="Times New Roman,serif" font-size="14.00">acc_id :varchar(20)</text>
<text text-anchor="start" x="238" y="-579.3" font-family="Times New Roman,serif" font-size="14.00">name :varchar(20)</text>
<text text-anchor="start" x="238" y="-564.3" font-family="Times New Roman,serif" font-size="14.00">grade :varchar(5)</text>
<text text-anchor="start" x="238" y="-549.3" font-family="Times New Roman,serif" font-size="14.00">university :varchar(20)</text>
<text text-anchor="start" x="238" y="-534.3" font-family="Times New Roman,serif" font-size="14.00">faculty :varchar(20)</text>
<text text-anchor="start" x="238" y="-519.3" font-family="Times New Roman,serif" font-size="14.00">department :varchar(20)</text>
<text text-anchor="start" x="238" y="-504.3" font-family="Times New Roman,serif" font-size="14.00">introduction :varchar(1000)</text>
</g>
<!-- Bookmark -->
<g id="node4" class="node"><title>Bookmark</title>
<path fill="none" stroke="black" d="M12,-38C12,-38 145,-38 145,-38 151,-38 157,-44 157,-50 157,-50 157,-132 157,-132 157,-138 151,-144 145,-144 145,-144 12,-144 12,-144 6,-144 0,-138 0,-132 0,-132 0,-50 0,-50 0,-44 6,-38 12,-38"/>
<text text-anchor="middle" x="78.5" y="-128.8" font-family="Times New Roman,serif" font-size="14.00">Bookmark</text>
<polyline fill="none" stroke="black" points="0,-121 157,-121 "/>
<text text-anchor="start" x="8" y="-105.8" font-family="Times New Roman,serif" font-size="14.00">account_id :bigint(20)</text>
<text text-anchor="start" x="8" y="-90.8" font-family="Times New Roman,serif" font-size="14.00">recruitment_id :bigint(20)</text>
<text text-anchor="start" x="8" y="-75.8" font-family="Times New Roman,serif" font-size="14.00">created_at :datetime</text>
<text text-anchor="start" x="8" y="-60.8" font-family="Times New Roman,serif" font-size="14.00">updated_at :datetime</text>
<text text-anchor="start" x="8" y="-45.8" font-family="Times New Roman,serif" font-size="14.00">id :bigint(20)</text>
</g>
<!-- Account&#45;&gt;Bookmark -->
<g id="edge5" class="edge"><title>Account&#45;&gt;Bookmark</title>
<path fill="none" stroke="#280e6f" d="M246.323,-488.75C241.959,-479.044 237.665,-469.422 233.5,-460 186.156,-352.897 133.807,-226.916 103.67,-153.599"/>
<ellipse fill="none" stroke="#280e6f" cx="248.03" cy="-492.54" rx="4.00002" ry="4.00002"/>
<polygon fill="#280e6f" stroke="#280e6f" points="103.547,-153.299 103.91,-142.339 101.647,-148.674 99.7478,-144.048 99.7478,-144.048 99.7478,-144.048 101.647,-148.674 95.5852,-145.758 103.547,-153.299 103.547,-153.299"/>
</g>
<!-- ChatComment -->
<g id="node5" class="node"><title>ChatComment</title>
<path fill="none" stroke="black" d="M187,-0.5C187,-0.5 320,-0.5 320,-0.5 326,-0.5 332,-6.5 332,-12.5 332,-12.5 332,-169.5 332,-169.5 332,-175.5 326,-181.5 320,-181.5 320,-181.5 187,-181.5 187,-181.5 181,-181.5 175,-175.5 175,-169.5 175,-169.5 175,-12.5 175,-12.5 175,-6.5 181,-0.5 187,-0.5"/>
<text text-anchor="middle" x="253.5" y="-166.3" font-family="Times New Roman,serif" font-size="14.00">ChatComment</text>
<polyline fill="none" stroke="black" points="175,-158.5 332,-158.5 "/>
<text text-anchor="start" x="183" y="-143.3" font-family="Times New Roman,serif" font-size="14.00">id :bigint(20)</text>
<text text-anchor="start" x="183" y="-128.3" font-family="Times New Roman,serif" font-size="14.00">chat_id :int(11)</text>
<text text-anchor="start" x="183" y="-113.3" font-family="Times New Roman,serif" font-size="14.00">acc_id :varchar(255)</text>
<text text-anchor="start" x="183" y="-98.3" font-family="Times New Roman,serif" font-size="14.00">time :date</text>
<text text-anchor="start" x="183" y="-83.3" font-family="Times New Roman,serif" font-size="14.00">comment :varchar(255)</text>
<text text-anchor="start" x="183" y="-68.3" font-family="Times New Roman,serif" font-size="14.00">file_id :int(11)</text>
<text text-anchor="start" x="183" y="-53.3" font-family="Times New Roman,serif" font-size="14.00">account_id :bigint(20)</text>
<text text-anchor="start" x="183" y="-38.3" font-family="Times New Roman,serif" font-size="14.00">recruitment_id :bigint(20)</text>
<text text-anchor="start" x="183" y="-23.3" font-family="Times New Roman,serif" font-size="14.00">created_at :datetime</text>
<text text-anchor="start" x="183" y="-8.3" font-family="Times New Roman,serif" font-size="14.00">updated_at :datetime</text>
</g>
<!-- Account&#45;&gt;ChatComment -->
<g id="edge4" class="edge"><title>Account&#45;&gt;ChatComment</title>
<path fill="none" stroke="#d46060" d="M255.858,-488.267C253.419,-478.798 251.275,-469.346 249.5,-460 232.511,-370.523 235.682,-266.593 241.829,-192.049"/>
<ellipse fill="none" stroke="#d46060" cx="256.945" cy="-492.358" rx="4.00001" ry="4.00001"/>
<polygon fill="#d46060" stroke="#d46060" points="241.859,-191.693 247.198,-182.114 242.287,-186.711 242.714,-181.73 242.714,-181.73 242.714,-181.73 242.287,-186.711 238.231,-181.345 241.859,-191.693 241.859,-191.693"/>
</g>
<!-- Comment -->
<g id="node6" class="node"><title>Comment</title>
<path fill="none" stroke="black" d="M362,-23C362,-23 495,-23 495,-23 501,-23 507,-29 507,-35 507,-35 507,-147 507,-147 507,-153 501,-159 495,-159 495,-159 362,-159 362,-159 356,-159 350,-153 350,-147 350,-147 350,-35 350,-35 350,-29 356,-23 362,-23"/>
<text text-anchor="middle" x="428.5" y="-143.8" font-family="Times New Roman,serif" font-size="14.00">Comment</text>
<polyline fill="none" stroke="black" points="350,-136 507,-136 "/>
<text text-anchor="start" x="358" y="-120.8" font-family="Times New Roman,serif" font-size="14.00">recruitment_id :bigint(20)</text>
<text text-anchor="start" x="358" y="-105.8" font-family="Times New Roman,serif" font-size="14.00">account_id :bigint(20)</text>
<text text-anchor="start" x="358" y="-90.8" font-family="Times New Roman,serif" font-size="14.00">message :varchar(1000)</text>
<text text-anchor="start" x="358" y="-75.8" font-family="Times New Roman,serif" font-size="14.00">file_id :int(11)</text>
<text text-anchor="start" x="358" y="-60.8" font-family="Times New Roman,serif" font-size="14.00">created_at :datetime</text>
<text text-anchor="start" x="358" y="-45.8" font-family="Times New Roman,serif" font-size="14.00">updated_at :datetime</text>
<text text-anchor="start" x="358" y="-30.8" font-family="Times New Roman,serif" font-size="14.00">id :bigint(20)</text>
</g>
<!-- Account&#45;&gt;Comment -->
<g id="edge2" class="edge"><title>Account&#45;&gt;Comment</title>
<path fill="none" stroke="#58ed66" d="M425.142,-488.267C427.581,-478.798 429.725,-469.346 431.5,-460 451.563,-354.332 432.78,-325.548 431.5,-218 431.313,-202.295 430.995,-185.492 430.634,-169.441"/>
<ellipse fill="none" stroke="#58ed66" cx="424.055" cy="-492.358" rx="4.00001" ry="4.00001"/>
<polygon fill="#58ed66" stroke="#58ed66" points="430.625,-169.018 434.891,-158.916 430.508,-164.019 430.392,-159.02 430.392,-159.02 430.392,-159.02 430.508,-164.019 425.893,-159.125 430.625,-169.018 430.625,-169.018"/>
</g>
<!-- EntryChat -->
<g id="node7" class="node"><title>EntryChat</title>
<path fill="none" stroke="black" d="M537,-23C537,-23 670,-23 670,-23 676,-23 682,-29 682,-35 682,-35 682,-147 682,-147 682,-153 676,-159 670,-159 670,-159 537,-159 537,-159 531,-159 525,-153 525,-147 525,-147 525,-35 525,-35 525,-29 531,-23 537,-23"/>
<text text-anchor="middle" x="603.5" y="-143.8" font-family="Times New Roman,serif" font-size="14.00">EntryChat</text>
<polyline fill="none" stroke="black" points="525,-136 682,-136 "/>
<text text-anchor="start" x="533" y="-120.8" font-family="Times New Roman,serif" font-size="14.00">chat_id :int(11)</text>
<text text-anchor="start" x="533" y="-105.8" font-family="Times New Roman,serif" font-size="14.00">acc_id :varchar(255)</text>
<text text-anchor="start" x="533" y="-90.8" font-family="Times New Roman,serif" font-size="14.00">account_id :bigint(20)</text>
<text text-anchor="start" x="533" y="-75.8" font-family="Times New Roman,serif" font-size="14.00">recruitment_id :bigint(20)</text>
<text text-anchor="start" x="533" y="-60.8" font-family="Times New Roman,serif" font-size="14.00">created_at :datetime</text>
<text text-anchor="start" x="533" y="-45.8" font-family="Times New Roman,serif" font-size="14.00">updated_at :datetime</text>
<text text-anchor="start" x="533" y="-30.8" font-family="Times New Roman,serif" font-size="14.00">id :bigint(20)</text>
</g>
<!-- Account&#45;&gt;EntryChat -->
<g id="edge3" class="edge"><title>Account&#45;&gt;EntryChat</title>
<path fill="none" stroke="#236575" d="M436.54,-488.803C440.958,-479.083 445.298,-469.444 449.5,-460 493.979,-360.026 542.213,-243.286 572.626,-168.553"/>
<ellipse fill="none" stroke="#236575" cx="434.805" cy="-492.61" rx="4.00002" ry="4.00002"/>
<polygon fill="#236575" stroke="#236575" points="572.662,-168.463 580.597,-160.894 574.546,-163.831 576.429,-159.199 576.429,-159.199 576.429,-159.199 574.546,-163.831 572.26,-157.505 572.662,-168.463 572.662,-168.463"/>
</g>
<!-- Recruitment -->
<g id="node9" class="node"><title>Recruitment</title>
<path fill="none" stroke="black" d="M271,-218.5C271,-218.5 410,-218.5 410,-218.5 416,-218.5 422,-224.5 422,-230.5 422,-230.5 422,-447.5 422,-447.5 422,-453.5 416,-459.5 410,-459.5 410,-459.5 271,-459.5 271,-459.5 265,-459.5 259,-453.5 259,-447.5 259,-447.5 259,-230.5 259,-230.5 259,-224.5 265,-218.5 271,-218.5"/>
<text text-anchor="middle" x="340.5" y="-444.3" font-family="Times New Roman,serif" font-size="14.00">Recruitment</text>
<polyline fill="none" stroke="black" points="259,-436.5 422,-436.5 "/>
<text text-anchor="start" x="267" y="-421.3" font-family="Times New Roman,serif" font-size="14.00">id :bigint(20)</text>
<text text-anchor="start" x="267" y="-406.3" font-family="Times New Roman,serif" font-size="14.00">acc_id :varchar(20)</text>
<text text-anchor="start" x="267" y="-391.3" font-family="Times New Roman,serif" font-size="14.00">re_id :varchar(255)</text>
<text text-anchor="start" x="267" y="-376.3" font-family="Times New Roman,serif" font-size="14.00">chat_id :varchar(255)</text>
<text text-anchor="start" x="267" y="-361.3" font-family="Times New Roman,serif" font-size="14.00">resolved :varchar(255)</text>
<text text-anchor="start" x="267" y="-346.3" font-family="Times New Roman,serif" font-size="14.00">title :varchar(100)</text>
<text text-anchor="start" x="267" y="-331.3" font-family="Times New Roman,serif" font-size="14.00">detail :varchar(1000)</text>
<text text-anchor="start" x="267" y="-316.3" font-family="Times New Roman,serif" font-size="14.00">ans_com_id :varchar(255)</text>
<text text-anchor="start" x="267" y="-301.3" font-family="Times New Roman,serif" font-size="14.00">answer :varchar(1000)</text>
<text text-anchor="start" x="267" y="-286.3" font-family="Times New Roman,serif" font-size="14.00">file_id :varchar(255)</text>
<text text-anchor="start" x="267" y="-271.3" font-family="Times New Roman,serif" font-size="14.00">chat :varchar(255)</text>
<text text-anchor="start" x="267" y="-256.3" font-family="Times New Roman,serif" font-size="14.00">account_id :bigint(20)</text>
<text text-anchor="start" x="267" y="-241.3" font-family="Times New Roman,serif" font-size="14.00">created_at :datetime</text>
<text text-anchor="start" x="267" y="-226.3" font-family="Times New Roman,serif" font-size="14.00">updated_at :datetime</text>
</g>
<!-- Account&#45;&gt;Recruitment -->
<g id="edge1" class="edge"><title>Account&#45;&gt;Recruitment</title>
<path fill="none" stroke="#906e26" d="M340.5,-488.188C340.5,-482.054 340.5,-475.967 340.5,-469.956"/>
<ellipse fill="none" stroke="#906e26" cx="340.5" cy="-492.253" rx="4" ry="4"/>
<polygon fill="#906e26" stroke="#906e26" points="340.5,-469.917 345,-459.917 340.5,-464.917 340.5,-459.917 340.5,-459.917 340.5,-459.917 340.5,-464.917 336,-459.917 340.5,-469.917 340.5,-469.917"/>
</g>
<!-- ApplicationRecord -->
<g id="node3" class="node"><title>ApplicationRecord</title>
<ellipse fill="none" stroke="black" cx="548.5" cy="-692" rx="79.8859" ry="18"/>
<text text-anchor="middle" x="548.5" y="-688.3" font-family="Times New Roman,serif" font-size="14.00">ApplicationRecord</text>
</g>
<!-- Inputtag -->
<g id="node8" class="node"><title>Inputtag</title>
<polygon fill="none" stroke="black" points="646.5,-669 646.5,-715 708.5,-715 708.5,-669 646.5,-669"/>
<text text-anchor="middle" x="677.5" y="-699.8" font-family="Times New Roman,serif" font-size="14.00">Inputtag</text>
<polyline fill="none" stroke="black" points="646.5,-692 708.5,-692 "/>
<text text-anchor="middle" x="677.5" y="-676.8" font-family="Times New Roman,serif" font-size="14.00"> </text>
</g>
<!-- Recruitment&#45;&gt;Bookmark -->
<g id="edge9" class="edge"><title>Recruitment&#45;&gt;Bookmark</title>
<path fill="none" stroke="#2dd75f" d="M252.432,-261.779C224.257,-236.791 193.201,-208.604 165.5,-182 155.41,-172.309 144.893,-161.801 134.802,-151.5"/>
<ellipse fill="none" stroke="#2dd75f" cx="255.778" cy="-264.74" rx="4.00002" ry="4.00002"/>
<polygon fill="#2dd75f" stroke="#2dd75f" points="134.521,-151.212 130.764,-140.909 131.031,-147.631 127.542,-144.05 127.542,-144.05 127.542,-144.05 131.031,-147.631 124.319,-147.191 134.521,-151.212 134.521,-151.212"/>
</g>
<!-- Recruitment&#45;&gt;ChatComment -->
<g id="edge8" class="edge"><title>Recruitment&#45;&gt;ChatComment</title>
<path fill="none" stroke="#b04699" d="M295.384,-210.432C293.125,-204.043 290.872,-197.671 288.648,-191.384"/>
<ellipse fill="none" stroke="#b04699" cx="296.813" cy="-214.472" rx="4.00001" ry="4.00001"/>
<polygon fill="#b04699" stroke="#b04699" points="288.517,-191.014 289.425,-180.085 286.85,-186.3 285.183,-181.586 285.183,-181.586 285.183,-181.586 286.85,-186.3 280.94,-183.086 288.517,-191.014 288.517,-191.014"/>
</g>
<!-- Recruitment&#45;&gt;Comment -->
<g id="edge6" class="edge"><title>Recruitment&#45;&gt;Comment</title>
<path fill="none" stroke="#8a1477" d="M386.061,-210.635C391.169,-196.357 396.249,-182.157 401.024,-168.807"/>
<ellipse fill="none" stroke="#8a1477" cx="384.687" cy="-214.477" rx="4.00001" ry="4.00001"/>
<polygon fill="#8a1477" stroke="#8a1477" points="401.076,-168.663 408.681,-160.763 402.76,-163.955 404.444,-159.247 404.444,-159.247 404.444,-159.247 402.76,-163.955 400.207,-157.732 401.076,-168.663 401.076,-168.663"/>
</g>
<!-- Recruitment&#45;&gt;EntryChat -->
<g id="edge7" class="edge"><title>Recruitment&#45;&gt;EntryChat</title>
<path fill="none" stroke="#8ea51b" d="M428.332,-262.518C456.876,-237.364 488.419,-208.893 516.5,-182 521.679,-177.04 526.969,-171.863 532.255,-166.607"/>
<ellipse fill="none" stroke="#8ea51b" cx="425.293" cy="-265.192" rx="4.00002" ry="4.00002"/>
<polygon fill="#8ea51b" stroke="#8ea51b" points="532.382,-166.48 542.633,-162.586 535.915,-162.943 539.449,-159.405 539.449,-159.405 539.449,-159.405 535.915,-162.943 536.265,-156.225 532.382,-166.48 532.382,-166.48"/>
</g>
<!-- Tag -->
<g id="node10" class="node"><title>Tag</title>
<path fill="none" stroke="black" d="M738.5,-631.5C738.5,-631.5 854.5,-631.5 854.5,-631.5 860.5,-631.5 866.5,-637.5 866.5,-643.5 866.5,-643.5 866.5,-740.5 866.5,-740.5 866.5,-746.5 860.5,-752.5 854.5,-752.5 854.5,-752.5 738.5,-752.5 738.5,-752.5 732.5,-752.5 726.5,-746.5 726.5,-740.5 726.5,-740.5 726.5,-643.5 726.5,-643.5 726.5,-637.5 732.5,-631.5 738.5,-631.5"/>
<text text-anchor="middle" x="796.5" y="-737.3" font-family="Times New Roman,serif" font-size="14.00">Tag</text>
<polyline fill="none" stroke="black" points="726.5,-729.5 866.5,-729.5 "/>
<text text-anchor="start" x="734.5" y="-714.3" font-family="Times New Roman,serif" font-size="14.00">tag_type :tinyint(1)</text>
<text text-anchor="start" x="734.5" y="-699.3" font-family="Times New Roman,serif" font-size="14.00">tag_name :varchar(30)</text>
<text text-anchor="start" x="734.5" y="-684.3" font-family="Times New Roman,serif" font-size="14.00">com_count :int(11)</text>
<text text-anchor="start" x="734.5" y="-669.3" font-family="Times New Roman,serif" font-size="14.00">created_at :datetime</text>
<text text-anchor="start" x="734.5" y="-654.3" font-family="Times New Roman,serif" font-size="14.00">updated_at :datetime</text>
<text text-anchor="start" x="734.5" y="-639.3" font-family="Times New Roman,serif" font-size="14.00">tag_id :int(11)</text>
</g>
<!-- Taghistory -->
<g id="node11" class="node"><title>Taghistory</title>
<path fill="none" stroke="black" d="M897,-541.5C897,-541.5 1022,-541.5 1022,-541.5 1028,-541.5 1034,-547.5 1034,-553.5 1034,-553.5 1034,-830.5 1034,-830.5 1034,-836.5 1028,-842.5 1022,-842.5 1022,-842.5 897,-842.5 897,-842.5 891,-842.5 885,-836.5 885,-830.5 885,-830.5 885,-553.5 885,-553.5 885,-547.5 891,-541.5 897,-541.5"/>
<text text-anchor="middle" x="959.5" y="-827.3" font-family="Times New Roman,serif" font-size="14.00">Taghistory</text>
<polyline fill="none" stroke="black" points="885,-819.5 1034,-819.5 "/>
<text text-anchor="start" x="893" y="-804.3" font-family="Times New Roman,serif" font-size="14.00">id :bigint(20)</text>
<text text-anchor="start" x="893" y="-789.3" font-family="Times New Roman,serif" font-size="14.00">acc_id :varchar(255)</text>
<text text-anchor="start" x="893" y="-774.3" font-family="Times New Roman,serif" font-size="14.00">univtag :varchar(30)</text>
<text text-anchor="start" x="893" y="-759.3" font-family="Times New Roman,serif" font-size="14.00">faculty :varchar(30)</text>
<text text-anchor="start" x="893" y="-744.3" font-family="Times New Roman,serif" font-size="14.00">department :varchar(30)</text>
<text text-anchor="start" x="893" y="-729.3" font-family="Times New Roman,serif" font-size="14.00">tag1 :varchar(30)</text>
<text text-anchor="start" x="893" y="-714.3" font-family="Times New Roman,serif" font-size="14.00">tag2 :varchar(30)</text>
<text text-anchor="start" x="893" y="-699.3" font-family="Times New Roman,serif" font-size="14.00">tag3 :varchar(30)</text>
<text text-anchor="start" x="893" y="-684.3" font-family="Times New Roman,serif" font-size="14.00">tag4 :varchar(30)</text>
<text text-anchor="start" x="893" y="-669.3" font-family="Times New Roman,serif" font-size="14.00">tag5 :varchar(30)</text>
<text text-anchor="start" x="893" y="-654.3" font-family="Times New Roman,serif" font-size="14.00">tag6 :varchar(30)</text>
<text text-anchor="start" x="893" y="-639.3" font-family="Times New Roman,serif" font-size="14.00">tag7 :varchar(30)</text>
<text text-anchor="start" x="893" y="-624.3" font-family="Times New Roman,serif" font-size="14.00">tag8 :varchar(30)</text>
<text text-anchor="start" x="893" y="-609.3" font-family="Times New Roman,serif" font-size="14.00">tag9 :varchar(30)</text>
<text text-anchor="start" x="893" y="-594.3" font-family="Times New Roman,serif" font-size="14.00">tag10 :varchar(30)</text>
<text text-anchor="start" x="893" y="-579.3" font-family="Times New Roman,serif" font-size="14.00">display :varchar(391)</text>
<text text-anchor="start" x="893" y="-564.3" font-family="Times New Roman,serif" font-size="14.00">created_at :datetime</text>
<text text-anchor="start" x="893" y="-549.3" font-family="Times New Roman,serif" font-size="14.00">updated_at :datetime</text>
</g>
<!-- Taghistoryid -->
<g id="node12" class="node"><title>Taghistoryid</title>
<polygon fill="none" stroke="black" points="1052,-669 1052,-715 1139,-715 1139,-669 1052,-669"/>
<text text-anchor="middle" x="1095.5" y="-699.8" font-family="Times New Roman,serif" font-size="14.00">Taghistoryid</text>
<polyline fill="none" stroke="black" points="1052,-692 1139,-692 "/>
<text text-anchor="middle" x="1095.5" y="-676.8" font-family="Times New Roman,serif" font-size="14.00"> </text>
</g>
<!-- Tagmap -->
<g id="node13" class="node"><title>Tagmap</title>
<path fill="none" stroke="black" d="M1169.5,-639C1169.5,-639 1277.5,-639 1277.5,-639 1283.5,-639 1289.5,-645 1289.5,-651 1289.5,-651 1289.5,-733 1289.5,-733 1289.5,-739 1283.5,-745 1277.5,-745 1277.5,-745 1169.5,-745 1169.5,-745 1163.5,-745 1157.5,-739 1157.5,-733 1157.5,-733 1157.5,-651 1157.5,-651 1157.5,-645 1163.5,-639 1169.5,-639"/>
<text text-anchor="middle" x="1223.5" y="-729.8" font-family="Times New Roman,serif" font-size="14.00">Tagmap</text>
<polyline fill="none" stroke="black" points="1157.5,-722 1289.5,-722 "/>
<text text-anchor="start" x="1165.5" y="-706.8" font-family="Times New Roman,serif" font-size="14.00">com_id :int(11)</text>
<text text-anchor="start" x="1165.5" y="-691.8" font-family="Times New Roman,serif" font-size="14.00">tag_id :int(11)</text>
<text text-anchor="start" x="1165.5" y="-676.8" font-family="Times New Roman,serif" font-size="14.00">created_at :datetime</text>
<text text-anchor="start" x="1165.5" y="-661.8" font-family="Times New Roman,serif" font-size="14.00">updated_at :datetime</text>
<text text-anchor="start" x="1165.5" y="-646.8" font-family="Times New Roman,serif" font-size="14.00">id :bigint(20)</text>
</g>
<!-- Univinfo -->
<g id="node14" class="node"><title>Univinfo</title>
<path fill="none" stroke="black" d="M1319.5,-624C1319.5,-624 1427.5,-624 1427.5,-624 1433.5,-624 1439.5,-630 1439.5,-636 1439.5,-636 1439.5,-748 1439.5,-748 1439.5,-754 1433.5,-760 1427.5,-760 1427.5,-760 1319.5,-760 1319.5,-760 1313.5,-760 1307.5,-754 1307.5,-748 1307.5,-748 1307.5,-636 1307.5,-636 1307.5,-630 1313.5,-624 1319.5,-624"/>
<text text-anchor="middle" x="1373.5" y="-744.8" font-family="Times New Roman,serif" font-size="14.00">Univinfo</text>
<polyline fill="none" stroke="black" points="1307.5,-737 1439.5,-737 "/>
<text text-anchor="start" x="1315.5" y="-721.8" font-family="Times New Roman,serif" font-size="14.00">p_id :int(11)</text>
<text text-anchor="start" x="1315.5" y="-706.8" font-family="Times New Roman,serif" font-size="14.00">stat :int(11)</text>
<text text-anchor="start" x="1315.5" y="-691.8" font-family="Times New Roman,serif" font-size="14.00">name :varchar(255)</text>
<text text-anchor="start" x="1315.5" y="-676.8" font-family="Times New Roman,serif" font-size="14.00">tag_id :int(11)</text>
<text text-anchor="start" x="1315.5" y="-661.8" font-family="Times New Roman,serif" font-size="14.00">created_at :datetime</text>
<text text-anchor="start" x="1315.5" y="-646.8" font-family="Times New Roman,serif" font-size="14.00">updated_at :datetime</text>
<text text-anchor="start" x="1315.5" y="-631.8" font-family="Times New Roman,serif" font-size="14.00">infoid :int(11)</text>
</g>
</g>
</svg>
